<svg viewBox="0 0 512 512" width="512pt" height="512pt" xmlns="http://www.w3.org/2000/svg"><path d="M362.44 0h6.25c-5 2.83-9.8 4.82-14.24 8.43-8.3 6.76-15.5 14.8-20.95 24.03-5.15 8.74-10.12 17.9-13.65 27.42-1.87 4.95-4.64 9.45-6.55 14.38-3.44 9.2-5.95 18.68-7.91 28.3-.95 4.87-2.09 9.45-2.03 14.44 0 6-.03 12 .02 18 .01 7.03 1.24 13.23-1.17 20.08-1.19 4.7-4.8 7.59-6.55 11.89-1.65 6.01 3.39 12.37 8.51 14.93 2.92 1.81 6.35 2.94 6.07 7.08-1.32 8.36-.82 16.61-.73 25.02 0 2.58.04 5.01-1.02 7.41-1.28 3.39-3.81 6.96-4.02 10.57-.2 3-.25 6.1.25 9.07.8 3.33 3.37 6.38 4.63 9.45.43 1.77.66 3.71-1.45 4.39-4.31 1.62-8.45 2.61-12.06 5.7-2.7 1.89-5.45 3.29-8.86 3-2.35.12-3.4-1.4-4.89-2.91-3.18-4.48-7.73-6.82-12.6-9.05-6.8-3.09-15.12-3.22-21.92-.05-2.8 1.2-5.08 2.63-8.28 2.03-1.81-2.29-2.61-5-4.75-7.12-2.03-2.05-4.04-3.99-5.36-6.61-3.03-6.11-7.72-10.86-12.99-15.08-5.15-3.79-10.79-7.63-17.16-8.89-2.72-.72-5.87.49-8.09 2.05-.44 1.07-.82 2.16-1.13 3.29-3.33 2.59-5.95 5.81-8.23 9.34-1.29 1.95-2.97 3.87-5.54 3.59-4.08-.56-7.86-1.9-12.03-1.83-4.93.05-10.73-.55-15.37 1.27-4.21 1.73-8.05 3.65-9.95 8.07-2.71 5.07-.34 9.89 2.12 14.43 5.05 9.19 13.13 15.45 18.54 24.39 2.73 4.31.56 10.61-3.84 12.91-3.18 1.64-6.68 2.66-9.97 4.08-11.52 4.78-22.88 10.13-33.73 16.29-8.03 5.23-16.22 10.14-19.19 19.9-2.26 5.62.59 12.09 4.22 16.46 6.12 7.04 15.21 12.16 23.27 16.69 11.01 5.91 22.7 10.25 35.16 11.76 2.08.38 4.63.44 6.17 2.07.63 2.29-.61 4.3-1.29 6.45-1.54 3.79-.79 7.52.21 11.32 1.07 3.83 1.49 7.93 4.15 11.04 2.62 3.28 6.52 4.78 10.62 5.03 3.48.04 6.96.03 10.44.06 1.86 1.97 3.57 3.7 3.78 6.57.29 5.4.94 11.59-3.51 15.58-5.79 4.11-11.89 7.89-18.39 10.8-3.31 1.56-6.7 2.92-9 5.93-1.1 1.63-1.57 3.71-2.37 5.5-1.28 3.27-3.9 5.75-5.27 8.83-.75 3.3-.28 6.9-.66 10.27-4.2 10.75-7.45 22.35-7.77 33.95h-2.98c.6-10.07 2.81-19.88 6.09-29.41 2-5 .28-9.98 2.12-14.94 1.12-3.13 3.11-5.38 4.74-8.18 1.39-2.46 1.91-5.4 3.32-7.8 1.75-2.77 4.7-4.15 7.55-5.53 7.01-3.19 14.25-6.9 20.27-11.74 2.74-2.04 2.03-6.37 2.2-9.4-.17-1.95.29-4.89-1.1-6.42-3.71-1.71-8.61-.49-12.6-1.53-7.02-1.38-13.17-7.87-13.76-15.05-.37-2.06-1.18-3.98-1.64-6-.75-4.52.44-9.35-.03-13.87-.94-.68-2.44-.7-3.54-.98-10.95-1.79-21.59-5.28-31.29-10.68-6.28-2.8-11.93-6.62-17.51-10.59-4.12-3.74-8.4-6.14-11.49-10.74-1.26-1.9-3.29-3.75-3.26-6.11-.23-3.65-.62-8.08.94-11.48 1.25-2.93 2.89-5.76 4.83-8.27 1.95-2.62 4.66-3.56 7.16-5.81 4.93-4.86 11.72-7.87 17.78-11.46 10.85-5.41 22.12-10.07 33.36-14.62 3.65-1.11 4.36-5.16 3.75-8.45-1.28-3.77-4.65-7.01-7.13-10.08-4.46-4.89-8.1-9.83-11.64-15.41-3.55-4.25-5.43-11.53-2.59-16.53 2.78-4.29 6.59-8.09 11.53-9.77 5.47-2.34 10.72-1.6 16.54-1.67 4.52-.04 9.74 1.95 14.07.73 2.42-1.82 3.8-5 5.94-7.2 2.85-2.99 5.29-7.34 8.95-9.32 3.71-.57 8.04-.64 11.5 1.02 6.57 3.03 12.49 7.17 17.91 11.92 3.63 3.26 6.21 7.22 8.63 11.41 1.97 3.41 4.97 5.66 7.27 8.85 1.04 1.23 2.1 3.09 3.66 3.65 5.8-1.67 10.81-4.24 17.07-4.09 7.24-.1 12.75 3.2 18.74 6.76 3.65 2.23 6.21 5.57 10.15 7.38 3.44-.99 6.35-2.53 9.35-4.41 2.49-1.59 5.83-2.18 8-4.13 1.19-1.85-1.18-4.67-1.83-6.44-2.43-4.36-2.09-8.73-1.94-13.54.27-5.98 4.98-10.04 5.02-16.06.14-6.87-.34-13.8.08-20.66.13-2.86 1.52-5.99-.45-8.48-2.89-2.58-6.53-3.76-9.1-6.9-3.03-3.75-5.61-8.09-4.42-13.1 1.31-4.4 5.36-7.75 6.78-12.28.99-3.33 2.02-7.1 1.57-10.58-.86-6.4-.43-12.55-.52-19.01.09-4.7-.32-9.58.41-14.22 3.29-16.76 6.69-32.93 14.76-48.15 3.65-8.81 7.24-17.54 12.13-25.77C335.57 22.1 347.44 7.82 362.44 0Z" fill="#c2c2c3"/><path d="M368.69 0h2.7l1.82 1.17c3.36.27 6.55.53 9.62-1.17h2.11c3.15 2.8 6.03 5.5 7.6 9.52 3.08 6.75 2.46 14.47.48 21.44-2.59 10.6-7.69 20.99-11.91 31.12a1007.49 1007.49 0 0 0-16.57 38.36c-1.04 2.29-1.12 4.56-1.07 7.03 3.83.12 7.7-.25 11.52.1 6.15.9 12.17 2.92 17.67 5.8 3.71 1.84 7.23 4.33 11.38 4.98 1.54-.65 2.8-2.14 3.87-3.4 3.14-3.87 5.92-8.09 8.96-12.03 7.6-8.96 13.05-19.99 18.87-30.18 3.62-6.15 6.54-12.65 10.21-18.78 7.08-13.75 12.97-27.09 22.64-39.39 3.95-5.13 9.15-10.41 15.46-12.44 3.76-1.48 8.06.47 11.14 2.66 5.43 4.02 7.64 10.14 9.86 16.24 3.8 10.04 4.86 21.3 4.61 31.97.06 5.76.11 11.38-1.35 17-2.44 10.18-5.19 20.39-9.16 30.09-3.4 9.8-7.7 19.34-12.53 28.53-4.35 8.19-9.87 15.44-14.67 23.34-2.34 3.93-5.3 7.33-8.15 10.87-1.91 2.19-2.34 3.94-2.42 6.79 4.48 3.46 12 5.67 13.87 11.33 1.55 8.81-1.34 15.73-2.8 24.19-.76 4.33-3.6 7.63-4.66 11.79-.67 4.28.61 7.91-2.07 11.78-3.3 5.03-10.6 7.13-15.55 10.26 2.55 4.75 7.1 7.38 11.36 10.45 2.36 2.24 4.86 4.49 6.78 7.12 2.03 3.31 2.57 7.59 3.97 11.21 2.14 5.61 3.89 11.2 4.18 17.25.25 8.66-.14 17.36.13 26.02-.08 2.01 1.56 3.21 2.93 4.41 3.68 2.91 8.69 4.52 13.09 6 6.44 2.14 12.81 4.39 19.39 6.06v3.19c-8.64-2.9-17.34-5.65-25.93-8.69-4.5-1.94-10.16-4.77-12.81-9.04.6-8.98.21-17.95.36-26.95.08-3.8-.79-7.35-1.6-11.03-1.09-5.99-5.34-9.74-4.58-16.22-3.27-3.94-6.87-7.38-11.53-9.64-2.19-.97-3.31-2.59-4.67-4.45-.75-1.33-2.86-1.09-4.18-1.43.39-2.35.87-4.69 1.27-7.03l-1.65-.83c3.68-1.04 7.17-1.07 10.53-3.15 2.35-1.5 6.29-3.1 7.1-5.98.67-3.5.47-7.14-.86-10.47 2.27-2.62 4.76-5.18 5.81-8.58.47-2.29-.05-4.96.79-7.14 2.53-6.29 2.87-13.56 2.4-20.25-3.29-1.81-6.41-3.89-9.79-5.54-3.13-1.61-4.98-4.3-6.54-7.35 5.88-5.82 11.07-12.43 15.18-19.63 6.1-9.88 13.01-18.47 17.58-29.44 1.75-4.53 4.22-8.62 5.58-13.31 1.55-5.31 4.22-10.13 5.6-15.5 2.45-9.06 5.8-18.55 6.46-28-.06-6 .29-12.05-.04-18.05-.97-6.17-1.07-12.18-3.21-18.14-2.29-6.52-4.19-13.76-9.82-18.28-2.7-2.5-7.08-2.83-10.38-1.57-3.59 2.2-7.37 4.85-9.79 8.35-13.85 16.46-21.99 37.42-32.38 56.52-5.82 9.32-10.65 19.24-16.62 28.49-6.54 7.62-11.81 16.27-18.32 23.94.25-1.08.49-2.16.72-3.24-1.89.66-3.68 1.36-5.21 2.7-6.58-5.01-14.5-8.52-22.49-10.58-4.15-1.22-8.86-.8-13.15-.58-.65 1.28-1.28 2.64-2.15 3.78-2.36.31-4.87.06-7.25-.08 4.3-13.82 10.77-27.08 16.27-40.45 5.31-11.25 10.18-22.73 14.71-34.31 2.52-8.43 5.58-16.7 3.66-25.57-.89-4.45-2.95-8.71-7.15-10.85-2.22-.71-4.61-.99-6.92-1.26-10.99.84-20.12 6.81-27.49 14.66-5.78 5.28-9.63 11.62-13.92 18.07-3.69 6.33-7.63 12.87-10.49 19.57-2.43 6.46-4.65 12.73-8.22 18.64-4.53 11.89-7.64 24.68-9.79 37.22-1.16 5.45-.54 11.28-.67 16.99.05 5.75-.46 11.34.9 17 .81 4.16-1.53 7.01-1.78 10.97-.23 1.66.03 3.11-1.17 4.45-2.29 2.83-4.63 5.62-6.9 8.47.06 1.02.11 2.04.17 3.06 2.62 1.69 2.7 3.06 3.51 5.9 2.64 2.8 7.37 4.17 10.93 5.47-.74.48-1.49.97-2.22 1.47 2.06 3.08 4.16 5.13 3.11 9.17-1.29 7.87-.18 16.26-.34 24.19-.15 5.3-3.34 8.46-5.18 13.06-.21 3.7-.17 8.34.23 12.02 1.39 2.84 3.84 4.92 4.97 7.97-1.01 2.44-2.02 4.67-3.96 6.52.04.56.09 1.13.13 1.7-4.3-.1-8.67 1.24-11.61 4.5-.45-.78-.91-1.56-1.37-2.33 3.61-3.09 7.75-4.08 12.06-5.7 2.11-.68 1.88-2.62 1.45-4.39-1.26-3.07-3.83-6.12-4.63-9.45-.5-2.97-.45-6.07-.25-9.07.21-3.61 2.74-7.18 4.02-10.57 1.06-2.4 1.02-4.83 1.02-7.41-.09-8.41-.59-16.66.73-25.02.28-4.14-3.15-5.27-6.07-7.08-5.12-2.56-10.16-8.92-8.51-14.93 1.75-4.3 5.36-7.19 6.55-11.89 2.41-6.85 1.18-13.05 1.17-20.08-.05-6-.02-12-.02-18-.06-4.99 1.08-9.57 2.03-14.44 1.96-9.62 4.47-19.1 7.91-28.3 1.91-4.93 4.68-9.43 6.55-14.38 3.53-9.52 8.5-18.68 13.65-27.42 5.45-9.23 12.65-17.27 20.95-24.03 4.44-3.61 9.24-5.6 14.24-8.43Z" fill="#737474"/><path d="M371.39 0h11.44c-3.07 1.7-6.26 1.44-9.62 1.17L371.39 0Z" fill="#333435"/><path d="M384.94 0h4.17c8.62 7.94 10.26 19.94 6.88 30.81-2.99 11.96-8.38 22.77-13.05 34.09-4.68 9.5-8.51 19.37-12.8 29.06-1.33 3.55-3.32 6.69-2.06 10.57 10.78-.91 19.81 3.29 29.07 8.14 2.59 1.15 5.84 3.07 8.35.73 3.01-2.93 5.15-6.81 7.7-10.15 2.62-3.73 5.69-6.92 8.07-10.81 6.28-10.2 11.95-20.78 17.73-31.27 3.37-7.24 8.24-13.46 11-21 6.25-12.58 13.79-26.39 24.51-35.67 2.28-2.07 4.78-3.49 7.68-4.5h12.45c3.46 3.19 7 5.78 9.13 10.1 2.5 5.07 4.74 10.36 6.09 15.85.51 2.11 1.32 4.1 2.14 6.1v34.77c-4.57 20.78-11.82 40.85-21.22 59.93a158.88 158.88 0 0 1-10.52 17.37c-4.09 5.84-7.06 11.98-11.77 17.36-1.75 2.31-3.77 3.9-3.02 7.12 2.85 3.08 8.55 4.37 10.84 8.24 3.03 4.28 2.44 10.2 1.77 15.12-.95 4.68-2 9.34-2.88 14.04-1.01 5.31-4.97 8.77-4.69 13.97.02 3.39-.1 6.54-1.91 9.51-2.63 5.31-8.84 6.54-13.38 10.8 2.74 3.21 6.09 5.6 9.28 8.32l-2.97.82c-4.26-3.07-8.81-5.7-11.36-10.45 4.95-3.13 12.25-5.23 15.55-10.26 2.68-3.87 1.4-7.5 2.07-11.78 1.06-4.16 3.9-7.46 4.66-11.79 1.46-8.46 4.35-15.38 2.8-24.19-1.87-5.66-9.39-7.87-13.87-11.33.08-2.85.51-4.6 2.42-6.79 2.85-3.54 5.81-6.94 8.15-10.87 4.8-7.9 10.32-15.15 14.67-23.34 4.83-9.19 9.13-18.73 12.53-28.53 3.97-9.7 6.72-19.91 9.16-30.09 1.46-5.62 1.41-11.24 1.35-17 .25-10.67-.81-21.93-4.61-31.97-2.22-6.1-4.43-12.22-9.86-16.24-3.08-2.19-7.38-4.14-11.14-2.66-6.31 2.03-11.51 7.31-15.46 12.44-9.67 12.3-15.56 25.64-22.64 39.39-3.67 6.13-6.59 12.63-10.21 18.78-5.82 10.19-11.27 21.22-18.87 30.18-3.04 3.94-5.82 8.16-8.96 12.03-1.07 1.26-2.33 2.75-3.87 3.4-4.15-.65-7.67-3.14-11.38-4.98-5.5-2.88-11.52-4.9-17.67-5.8-3.82-.35-7.69.02-11.52-.1-.05-2.47.03-4.74 1.07-7.03 5.25-12.9 10.79-25.69 16.57-38.36 4.22-10.13 9.32-20.52 11.91-31.12 1.98-6.97 2.6-14.69-.48-21.44-1.57-4.02-4.45-6.72-7.6-9.52Z" fill="#c5c5c5"/><path d="M377 1.85c2.31.27 4.7.55 6.92 1.26 4.2 2.14 6.26 6.4 7.15 10.85 1.92 8.87-1.14 17.14-3.66 25.57-4.53 11.58-9.4 23.06-14.71 34.31-5.5 13.37-11.97 26.63-16.27 40.45 2.38.14 4.89.39 7.25.08.87-1.14 1.5-2.5 2.15-3.78 4.29-.22 9-.64 13.15.58 7.99 2.06 15.91 5.57 22.49 10.58 1.19.97 2.32 1.67 3.75 2.22l.74-1.68c6.51-7.67 11.78-16.32 18.32-23.94 5.97-9.25 10.8-19.17 16.62-28.49 10.39-19.1 18.53-40.06 32.38-56.52 2.42-3.5 6.2-6.15 9.79-8.35 3.3-1.26 7.68-.93 10.38 1.57 5.63 4.52 7.53 11.76 9.82 18.28 2.14 5.96 2.24 11.97 3.21 18.14.33 6-.02 12.05.04 18.05-.66 9.45-4.01 18.94-6.46 28-1.38 5.37-4.05 10.19-5.6 15.5-1.36 4.69-3.83 8.78-5.58 13.31-4.57 10.97-11.48 19.56-17.58 29.44-4.11 7.2-9.3 13.81-15.18 19.63 1.56 3.05 3.41 5.74 6.54 7.35 3.38 1.65 6.5 3.73 9.79 5.54.47 6.69.13 13.96-2.4 20.25-.84 2.18-.32 4.85-.79 7.14-1.05 3.4-3.54 5.96-5.81 8.58 1.33 3.33 1.53 6.97.86 10.47-.81 2.88-4.75 4.48-7.1 5.98-3.36 2.08-6.85 2.11-10.53 3.15-2.71 1.17-3.52 4.44-4.62 6.92 1.66.34 3.32.67 5 .94 1.32.34 3.43.1 4.18 1.43 1.36 1.86 2.48 3.48 4.67 4.45 4.66 2.26 8.26 5.7 11.53 9.64-.76 6.48 3.49 10.23 4.58 16.22.81 3.68 1.68 7.23 1.6 11.03-.15 9 .24 17.97-.36 26.95 2.65 4.27 8.31 7.1 12.81 9.04 8.59 3.04 17.29 5.79 25.93 8.69v2.33c-5.58-1.79-11.17-3.55-16.76-5.32-9.34-2.9-18.06-6.11-24.76-13.6 1.28-11.61 2.31-24.41-.13-35.92-1.19-5.59-3.47-10.69-6.21-15.68 1.99-1.76 1.65-1.87.26-3.88-3.99-4.28-9.3-8.41-15.21-9.41l1.64-2.4c-4.77-1.95-9.87-1.86-14.9-1.25 3.09-3.82 5.52-7.78 7.8-12.11 2.3-.77 4.93-.74 7.3-1.35 4.76-1.31 8.92-3.99 11.85-8.01-.38-3.21-1.06-6.15-2.41-9.09 3.94-2.38 5.49-6.13 7.15-10.2-.49-.64-.98-1.27-1.47-1.91 3.73-6.95 4.27-14.45 4.29-22.2-1.55-1.22-4.31.72-6.03 1.22.84-.95 1.69-1.88 2.5-2.85-3.75-1.75-7.63-3.31-10.33-6.6-1.59-1.92-2.28-4.08-3.14-6.37 8.8-8.15 14.58-17.87 20.7-27.95 8.56-11.58 14.27-24.34 19.24-37.78 4.34-11.15 8.15-22.99 9.99-34.82.38-8.72 1.51-17.14.4-25.53-.92-7.13-2.39-14.15-5.14-20.82-1.65-4.43-4.38-9.79-8.71-12.1-2.83-1.48-5.73.15-8.16 1.67-4.55 3.27-8.31 7.98-11.49 12.56-6.26 9.29-11.7 19.26-16.67 29.29-5.53 11.85-11.95 23.16-18.53 34.44-3.87 6.61-7.3 13.94-12.46 19.51-6.17 7.62-11.85 15.68-17.63 23.56-7.46-8.1-17.57-12.18-27.97-15.06-3.59-.99-7.23-.99-10.92-.7.46 2.24 2.13 3.11 3.75 4.45-5.49-.74-10.98-.73-16.5-.48 4.79-15.13 11.2-29.84 17.62-44.35 6.27-14.01 13.53-28.66 17.21-43.51 1.34-5.45 1.85-11.07-.13-16.44-1.11-3.24-3.56-6.14-6.84-7.3-7.89-1.49-15.66 2.08-21.97 6.52-10.78 7.92-18.73 19.26-25.18 30.82-4.9 8.92-8.87 18.16-12.33 27.73-1.39 4.09-4.05 7.47-5.18 11.68-5.47 17.37-9.35 35.75-7.88 54.03.44 3.97.91 8 1.16 11.99.38 3.83-3.22 5.68-.77 9.55-2.97 4.51-7.03 8.38-9.48 13.19 1.47.16 2.93.3 4.4.42-.65 1.13-1.29 2.26-1.93 3.4 3.51 4.46 10.64 5.91 15.81 7.71-2.16 6.32-2.64 12.8-3.09 19.41-.21 6.5 1.54 12.49-.13 18.99-.42 4.35-3.2 6.87-4.95 10.59-1.08 1.92 1.5 2.99.48 5.22-.93 3.3-1.08 7.49 3.01 8.46.96 4.82 3.61 8.42 7.17 11.69-3.6 1.13-5.54 2.11-7.48 5.44-3.54-.32-8.2-1.04-11.41.86-2.27 1.22-3.12 3.6-4.33 5.73-2.52-.32-5.43-1.28-7.73.26-2.4 1.64-3.18 4.14-3.97 6.79l-.1-.1c-1.09-4.71-4.17-7.67-7.21-11.19-4.82-5.45-11.7-9.32-19.14-9.09-4.21.17-8.69.46-12.29 2.88-6.01 3.62-9.96 8.65-14.47 13.87.16-1.12.31-2.24.45-3.36.17-1.26.33-2.51.44-3.78.14-4.65.43-10.72-2.03-14.84-1.94-.86-1.95 3.26-2.63 4.38-2.14-11.07-8.69-21.14-18.31-27.13-4.61-2.81-10.07-6.06-15.58-6.29.97 6.36.67 12.17-.51 18.47-.03-2.06-.48-4.03-1.02-6.01-.56-1.69-.99-3.68-2.07-5.11-1.01.15-1.8.69-2.36 1.63-2.64 3.88-4.81 8.27-6.86 12.48-8.81-3.53-18.27-5.14-27.74-4.28-3.44.5-7.46 1.74-9.91 4.34-2.59 3.21-1.33 7.06.63 10.21 4.15 6.53 8.83 12.79 14.13 18.43 2.68 3.28 5.18 6.7 7.97 9.89.66 3.9-1.71 8.37-2.49 12.18-.27 1.23-.51 2.46-.71 3.71-16.51 5.64-32.9 12.34-48.02 21.09-5.85 3.59-12.45 7.94-16.31 13.72-1.96 2.8-2.53 6.2-1.94 9.53 1.12 3.56 3.89 6.75 6.64 9.2 8.5 7.29 18.65 12.71 28.89 17.13 13.01 5.24 27.66 8.71 41.36 3.98l1.08.27c-2.28 2.3-4.81 4.33-7.05 6.69 1.1.35 2.21.67 3.32.99-3.14 3.34-5.53 7-7.17 11.29-.38 1.14-1.76 3.9.47 3.86 1.6-.83 3.12-1.96 4.59-3.03-2.27 4.27-3.08 8.6-3.08 13.42 1.26-.05 2.52-.12 3.78-.2-.64.91-1.28 1.82-1.91 2.73 1.51 1.04 2.84 1.77 4.71 1.89 6.22.66 12.5-.17 18.77.26 2.45 6.49 3.9 13.72 3.27 20.67-.35 2.58-.5 5.54-2.64 7.34-7.74 7.33-17.67 12.26-27.28 16.65-1.64.88-3.23 1.23-3.74 3.29 1.94.06 3.88.08 5.83.11-5.25 3.47-12.91 9.46-12.71 16.41 1.41-.38 2.7-.87 4.02-1.5-2.12 3.71-3.66 7.65-5.1 11.66-2.48 9.1-4.84 18.58-4.99 28.06h-2.96c.41-11.75 3.53-22.91 7.73-33.82 1.4-3.13-1.54-5.88-.6-9.39 1.68-3.86 4.8-6.09 7.75-8.93-.5-2.07-2.12-5.76.77-6.77 7.95-3.48 15.77-7.12 22.84-12.21 3.67-2.49 8.91-5.77 8.46-10.88.16-6.02-.09-13.04-2.9-18.5-4.84.18-9.69.16-14.53.16-3.46-.27-6.8-.76-8.62-4.1-2.64-3.35-1.87-6.72-1.89-10.69-1-.9-2.01-1.78-3.03-2.66-.02-5.19 2.48-9.11 5.33-13.2.08-1.89.29-3.7.68-5.55-4.79 0-9.65.4-14.42-.07-16.46-2.48-30.76-9.95-44.65-18.73-2.13-1.48-3.95-3.35-6.02-4.95-4.08-2.84-6.87-7.89-7.84-12.7.24-5.62 3.07-10.61 7.03-14.47 5.76-4.83 12.08-8.74 18.66-12.35 4.91-3.16 10.35-4.87 15.56-7.42 8.16-3.62 16.67-7.21 25.24-9.79 1.1-4.24 3.45-8.69 3.43-13.08-2.72-3.66-5.54-7.35-8.42-10.9-3.83-3.62-6.8-7.84-9.92-12.07-3.38-5.01-6.93-9.76-5.38-16.17 2.83-4.49 7.96-7.33 13.27-7.35 6.56.01 12.98-.39 19.45 1.06 2.49.92 4.97 1.77 7.61 2.17.49-1.16.97-2.32 1.45-3.47 1.42-2.89 3-6.18 5.41-8.37 1.33-.82 3.06-1.05 4.55-1.49.02-1.84.03-3.68.04-5.52 3.96-2.82 7.86-.75 11.78.92 6.24 3.18 12.05 7.04 16.7 12.34 3.49 3.63 5.38 7.97 7.6 12.39.76 1.84 2.57 1.92 4.18 2.88 1.59.59 1.49 2.26 1.9 3.67.85 4.02.89 8.04.98 12.13.36-.51.72-1.03 1.08-1.55 1.61-1.92 3.53-3.4 5.6-4.77 2.48-1.65 4.93-3.61 7.83-4.39 3.6-1.1 7.17-1.12 10.9-1.01 4.01-.03 8.04 2.25 11.59 3.96 3.29 1.54 5.94 3.89 8.18 6.73 1.44 1.88 2.91 3.74 4.44 5.55 1.42-1.07 2.86-2.3 4.49-3.03 1.79-.35 3.69-.24 5.51-.29.65-.8 1.31-1.61 1.97-2.4 2.94-3.26 7.31-4.6 11.61-4.5 3.18.39 4.55-1.77 6.87-3.42-1.14-1.52-2.22-3.07-3.04-4.8-1.13-3.05-3.58-5.13-4.97-7.97-.4-3.68-.44-8.32-.23-12.02 1.84-4.6 5.03-7.76 5.18-13.06.16-7.93-.95-16.32.34-24.19.35-3.21.96-6.37 1.44-9.56-.69-.48-1.47-.84-2.33-1.08-3.56-1.3-8.29-2.67-10.93-5.47-.81-2.84-.89-4.21-3.51-5.9-.06-1.02-.11-2.04-.17-3.06 2.27-2.85 4.61-5.64 6.9-8.47 1.2-1.34.94-2.79 1.17-4.45.25-3.96 2.59-6.81 1.78-10.97-1.36-5.66-.85-11.25-.9-17 .13-5.71-.49-11.54.67-16.99 2.15-12.54 5.26-25.33 9.79-37.22 3.57-5.91 5.79-12.18 8.22-18.64 2.86-6.7 6.8-13.24 10.49-19.57 4.29-6.45 8.14-12.79 13.92-18.07 7.37-7.85 16.5-13.82 27.49-14.66Z" fill="#fbfbfb"/><path d="M381.2 4.72c3.28 1.16 5.73 4.06 6.84 7.3 1.98 5.37 1.47 10.99.13 16.44-3.68 14.85-10.94 29.5-17.21 43.51-6.42 14.51-12.83 29.22-17.62 44.35 5.52-.25 11.01-.26 16.5.48-1.62-1.34-3.29-2.21-3.75-4.45 3.69-.29 7.33-.29 10.92.7 10.4 2.88 20.51 6.96 27.97 15.06 5.78-7.88 11.46-15.94 17.63-23.56 5.16-5.57 8.59-12.9 12.46-19.51 6.58-11.28 13-22.59 18.53-34.44 4.97-10.03 10.41-20 16.67-29.29 3.18-4.58 6.94-9.29 11.49-12.56 2.43-1.52 5.33-3.15 8.16-1.67 4.33 2.31 7.06 7.67 8.71 12.1 2.75 6.67 4.22 13.69 5.14 20.82 1.11 8.39-.02 16.81-.4 25.53-1.84 11.83-5.65 23.67-9.99 34.82-4.97 13.44-10.68 26.2-19.24 37.78-6.12 10.08-11.9 19.8-20.7 27.95.86 2.29 1.55 4.45 3.14 6.37 2.7 3.29 6.58 4.85 10.33 6.6-.81.97-1.66 1.9-2.5 2.85 1.72-.5 4.48-2.44 6.03-1.22-.02 7.75-.56 15.25-4.29 22.2.49.64.98 1.27 1.47 1.91-1.66 4.07-3.21 7.82-7.15 10.2 1.35 2.94 2.03 5.88 2.41 9.09-2.93 4.02-7.09 6.7-11.85 8.01-2.37.61-5 .58-7.3 1.35-2.28 4.33-4.71 8.29-7.8 12.11 5.03-.61 10.13-.7 14.9 1.25l-1.64 2.4c5.91 1 11.22 5.13 15.21 9.41 1.39 2.01 1.73 2.12-.26 3.88 2.74 4.99 5.02 10.09 6.21 15.68 2.44 11.51 1.41 24.31.13 35.92 6.7 7.49 15.42 10.7 24.76 13.6 5.59 1.77 11.18 3.53 16.76 5.32v1.58c-2.56-.71-5.15-1.27-7.73-1.93-8.26-2.52-17.42-4.7-24.94-8.98-3.52-1.93-6.03-4.88-9.41-7.04-1.63 10.06-2.92 20.28-5.27 30.23-2.37 12.66-4.81 25.67-9.51 37.7-3.88 10.5-10.86 19.22-19.98 25.63-2.67 1.8-5.64 2.97-8.73 3.83-.76.12-1.53.24-2.3.34-2.2-1.74-4.48-.86-7.15-1.13-2.26 0-4.05-1.07-6.06-1.97.65-1.06 1.31-2.12 1.99-3.17-10.09-4.19-17.17-11.87-23.33-20.63-4.95-7.95-9.86-15.87-13.52-24.52-4.68-10.9-10.21-21.35-16.79-31.22-.96-1.29-2-2.48-3.03-3.7-1.34 1.82-2.75 3.46-4.4 5.01-.69 7.84-1.89 17.82 1.29 25.25.74-3.86 1.23-7.71 2.52-11.44-.05 6.15-1.17 13.11.68 19.01 1.33 4.38 3.16 8.58 5.54 12.5.42-3.76-.95-8.79 1.02-12.09.88 4.32 1.38 8.59 2.95 12.75 2.84 7.74 7.73 14.9 14.23 20.02-1.5-5.38-3.17-10.57-3.85-16.15 2.48 5.45 3.08 10.71 7.67 14.96-.79 1.71-.65 5.61-3.52 3.79-7.19-4.97-13.29-13.41-15.67-21.82-.62.92-1.23 1.84-1.85 2.75-4.32-5.08-6.95-11.41-8.37-17.89-.49-2.99-2.64-4.87-3.62-7.6-2.14-7.69-1.54-15.16-.55-22.96-1.96.49-3.98 1.19-6.01 1.34-4.21-.2-6.8-3.14-10.09-5.34-1.58 1.22-3.07 2.52-4.69 3.69-6.48 2.7-12.98 5.4-19.3 8.45 3.58 7.15 7.71 12.96 10.11 20.45 3.1 9.91 7.71 19.03 13.03 27.9 5.81 10.01 14.28 19.56 24.65 24.95-1.86-.01-3.73 0-5.59.07 2.42 2.73 7.27 2.49 10.66 3.26l-1.77 2.16c4.88-.83 9.04-2.56 12.94-5.64 3.58-3.15 6.81-6.84 9.19-10.97 1.16-1.91.79-4 .83-6.15 2.91 3.31 5.57 6.67 9.08 9.41 10.38 8.23 22.55 13.47 34.82 18.15 27.35 9.76 55.14 13.24 83.83 16.46v1.05c-17.83-1.44-35.47-2.49-53-6.46-19.48-4.31-39.67-10.68-56.8-21.1-6.1-3.62-10.78-8.59-16.56-12.75-4.13 8.89-11.93 17.33-21.82 19.5-2.59.34-5.84 1.05-6.43-2.39-3.71-1.04-6.65-1.96-8.46-5.66 1.08-.34 2.17-.69 3.26-1.03-7.72-3.78-12.95-9.99-17.7-16.96-4.15-6.75-8.1-13.56-11.1-20.91-2.61-5.98-4.31-12.29-6.78-18.3-1.75-3.67-3.88-7.16-5.83-10.73-.45.93-.88 1.86-1.3 2.81l-.94-1.54c.15-1.26.31-2.51.47-3.76-2.05 2.01-4.16 3.92-6.5 5.58-3.2 1.25-6.62.4-9.77 1.17-4.99 3.56-9.26 7.65-15.73 8.42-3.83.54-7.32-.68-10.52-2.68-5.17-2.9-8.78-8.01-12.4-12.62-5.5-7.06-8.45-15.85-8.09-24.81.73-.73 1.45-1.47 2.18-2.21-.57 6.25-.34 12.44 2.93 17.97 3.59 6.02 7.05 11.94 12.23 16.76 1.73 1.54 4.06 4.7 6.63 4.19 7.17-.51 14.21-4.45 21.13-6.46-3.38-3.71-7.16-7.24-7.62-12.54-.21-2.65 1.5-4.6 3.99-5.24 4.39-1.06 8.83 1.27 12.52 3.41 2.58 1.42 5.06 4.4 7.99 4.85 6.6-.32 10.94-3.9 16.85-6.17 3.07-1.2 5.85-2.63 8.53-4.57-1.3-2.19-3.38-4.26-3-7 .35-3.4 4.19-6.52 7.63-5.84 3.76.32 6.6 2.79 9.99 3.62 3.65.4 7.7-1.66 11.05-2.95 7.69-3.44 15.34-7.65 21.71-13.22 4.8-4.48 8.82-9.41 9.85-16.11 1.31-7.93 1.58-17.48-2.47-24.71-3.02-6.15-10.3-9.42-16.95-8.75-4.93.51-10.2 1.22-14.73 3.3-4.86 2.21-9.88 3.94-14.63 6.34a193.04 193.04 0 0 1-10.51 4.92c.92 5.7.5 12.34-4.3 16.25-3.15 2.27-5.73 2.05-9.17.61-1.03 2.12-1.73 4.1-3.9 5.33-2.51 1.65-4.87.86-7.59.44-1.8 2.1-3.16 4.65-6.32 4.54-5.12.24-8.31-3.31-11.26-6.94-.94.39-1.89.78-2.83 1.17 2.25 3.87 4.5 7.17 4 11.9-.1 2.93-2.32 5.12-4.9 6.16-1.83.45-3.88.09-5.75.02-.98 4.73-3.78 5.92-8.23 6.35-1.38 3.01-2.34 4.84-6.04 4.9-5.84.11-9.92-6.72-12.24-11.26-.9 1.37-1.81 2.74-2.69 4.12-.33-.75-.65-1.51-.96-2.27 1.14-1.3 2.71-2.59 3.37-4.2.52-2.35.38-4.91.37-7.3.35-.56.69-1.11 1.05-1.65 1.98-.5 3.96-1 5.94-1.48 1.02-2.2 2.26-4.46 2.65-6.85 3.43-1.5 6.95-1.69 10.64-1.6-.55 3.58-1.42 7.3.15 10.75 1.38 3.07 3.43 6.97 6.6 8.47 3.72 1.99 9.01-1.28 8.7-5.55-.26-5.28-3.37-8.51-6.39-12.47l3.74.81c.29-.58.59-1.15.89-1.73-3.09-1.54-6.21-2.25-9.6-2.78l-1.59-.39c4.26-1.98 7.64.22 11.49 1.89-.82-3.59-1.71-7.08-1.71-10.77.79-2.65 1.57-5.15 3.97-6.79 2.3-1.54 5.21-.58 7.73-.26 1.21-2.13 2.06-4.51 4.33-5.73 3.21-1.9 7.87-1.18 11.41-.86 1.94-3.33 3.88-4.31 7.48-5.44-3.56-3.27-6.21-6.87-7.17-11.69-4.09-.97-3.94-5.16-3.01-8.46 1.02-2.23-1.56-3.3-.48-5.22 1.75-3.72 4.53-6.24 4.95-10.59 1.67-6.5-.08-12.49.13-18.99.45-6.61.93-13.09 3.09-19.41-5.17-1.8-12.3-3.25-15.81-7.71.64-1.14 1.28-2.27 1.93-3.4-1.47-.12-2.93-.26-4.4-.42 2.45-4.81 6.51-8.68 9.48-13.19-2.45-3.87 1.15-5.72.77-9.55-.25-3.99-.72-8.02-1.16-11.99-1.47-18.28 2.41-36.66 7.88-54.03 1.13-4.21 3.79-7.59 5.18-11.68 3.46-9.57 7.43-18.81 12.33-27.73 6.45-11.56 14.4-22.9 25.18-30.82 6.31-4.44 14.08-8.01 21.97-6.52Z" fill="#422824"/><path d="M384.35 9.64c3.02 4.28 3.37 10.31 2.38 15.31-1.54 8.44-4.67 16.72-8.09 24.56-6.81 16.24-14.66 31.92-20.67 48.51-2.54 6.01-4.11 12.3-6.2 18.47-3.22.46-6.49.9-9.68 1.56 2.21-6.03 4.35-12.05 7.19-17.81 1.76-3.26.68-6.64 2.13-9.96 1.2-2.77 2.73-5.38 3.83-8.2 2.06-5.48 5.63-10.11 7.78-15.56-.75.06-1.5.11-2.25.17 4.24-9.11 8.56-17.7 11.15-27.55-1 .89-1.99 1.78-2.98 2.68 1.53-7.96 4.06-15.62 4.94-23.81.39-3.81.25-7.5.15-11.32 3.91-.87 7.74-.4 10.32 2.95Z" fill="#8e3843"/><path d="M374.03 6.69c.1 3.82.24 7.51-.15 11.32-.88 8.19-3.41 15.85-4.94 23.81.99-.9 1.98-1.79 2.98-2.68-2.59 9.85-6.91 18.44-11.15 27.55.75-.06 1.5-.11 2.25-.17-2.15 5.45-5.72 10.08-7.78 15.56-1.1 2.82-2.63 5.43-3.83 8.2-1.45 3.32-.37 6.7-2.13 9.96-2.84 5.76-4.98 11.78-7.19 17.81-3.86.99-7.91 2.46-11.16 4.83-.85.8-2.72 1.75-2.33 3.1.77 1.25 3.21 1.03 4.52 1.45-4.35 2.14-8.49 4.34-12.07 7.67-3.81 3.37-6.69 7.36-9.86 11.29-.92-14.76-1.56-28.82 1.7-43.38 3.73-18.18 10.54-34.95 18.51-51.62 5.39-10.75 11.04-20.87 19.23-29.78 6.28-6.93 14.01-13.08 23.4-14.92ZM487.99 8.9c3.83 1.15 6.15 4.93 7.77 8.33 3.4 7.38 5.09 15.75 6.22 23.77 1.49 8.33-.6 17.5-1.24 26-.68 10.75-4.48 19.94-7.81 30.03-3.75 11.38-8.9 22.45-15.47 32.49-7.08 11.68-13.59 22.89-22.97 32.96-4.43 4.46-9.36 7.97-14.4 11.64-4.26 3.45-8.49 6.9-13.08 9.9-1.33 1.19-3.4 1.57-2.85 3.73 2.7.74 5.23.34 7.96.07-.59 2.31-1.17 4.59-1.61 6.93-6.9-.91-12.93 1.7-18.55 5.42-2.11-5.1-4.2-8.16-8.61-11.52 1.22-1.09 2.32-1.99 2.77-3.64 2.26-6.64 4.18-12.91 3.01-20.02-1.58-8.94-4.49-17.59-11.67-23.59 2.58-5.36 6.49-9.18 10-13.93 4.3-5.72 8.75-11.39 12.6-17.43 2.59-3.99 6.14-7.15 8.77-11.13 5.15-7.65 9.65-15.74 14.46-23.6 11.29-18.82 19.86-42.22 34.03-58.97 2.6-2.81 6.5-7.64 10.67-7.44Z" fill="#af4849"/><path d="M491.3 26.68c3.59 3.52 4.95 9.48 5.59 14.3 1.45 11.96-1.29 22.49-3.68 34.05-1.41 6.74-2.96 13.41-5.28 19.9-4.55 12.76-9.87 25.48-16.71 37.2-5.65 8.84-12.13 18.09-20.2 24.88-4.44 3.73-8.83 7.12-14.48 8.79 8.88-5.13 15.8-12.42 22.21-20.31 9.49-11.83 16.98-25.04 22.96-38.96 2.97-7.01 5.84-13.89 7.57-21.33 3.27-13.46 6.89-27.24 5.91-41.21-.39-4.94-1.3-10.76-4.32-14.86-.94-1.34-2.28-1.51-3.76-1.87-2.48 1.42-4.71 3.09-6.49 5.34-4.72 5.88-8.97 12.09-11.99 19.04-3.57 8.06-8.63 15.88-10.43 24.39-2.84 10.35-7.21 20.31-10.66 30.4-2.51 9.2-5.66 18.82-11.56 26.49 1.17-.15 2.33-.29 3.5-.44-.56 5.1-5.78 9.53-9.39 12.78.47.67.93 1.34 1.39 2.01-2.4 3.07-5.7 4.41-9.11 6.03 3.26 1.76 6.24 3.36 8.09 6.75l-.88 2.03c1.45 1.64 2.89 3.3 4.39 4.9l2.04-.9c-.58.36-1.16.72-1.73 1.08.13.92.27 1.84.41 2.76-3.71-4.83-7.7-8-13-10.96 1.86-.04 3.72-.09 5.58-.14-2.23-1.88-4.21-3.65-7.23-4.04-2.77.04-5.09 1.02-7.82.09l1.69-.6c3.72-.9 7.22-1.83 10.37-4.12-1.45-.23-2.91-.45-4.37-.65 6.2-2.78 11.57-6.88 15.21-12.69-2.69 1.12-5.36 2.28-8.1 3.27 2.75-2.78 5.57-5 7.78-8.28 4.49-6.45 6.88-13.78 9.75-21.17 3.01-8.66 6.06-17.29 9.15-25.91 2.24-5.74 2.89-11.77 5.66-17.34 4.7-9.78 8.73-19.82 13.89-29.36 3.2-4.02 6.48-9.21 10.84-12 2.09-1.17 5.51-1.29 7.21.66Z" fill="#3e2821"/><path d="M487.11 27.26c3.11 7.75 2.53 15.55 1.52 23.65-.76-2.02-1.53-4.03-2.31-6.03-.64 7.55-1.84 14.78-3.68 22.13-.97-2.59-1.93-5.17-2.9-7.76-.67.26-1.35.53-2.02.8-2.51.85-3.21 3-4.6 5.03-2.76 4.63-5.86 9.22-8.15 14.08 4.45-4.99 8.25-10.63 11.87-16.23-.39 13.03-2.16 26.71-7.06 38.88-1.97 4.81-4.63 9.92-8.58 13.39-2.54 2.37-4.85 4.94-7.21 7.48 5.6-3.28 10.53-7.02 14.94-11.79-3.19 9.56-8.49 18.3-15.43 25.6-3.08 3.29-7 5.11-10.37 8.02 3.13-.83 6.06-2.11 9.01-3.42-4.54 4.92-10.25 7.7-16.23 10.47 1.08-.13 2.17-.27 3.25-.43-.59 2.94-2.61 3.43-4.9 4.71 7.34-1.7 14.52-4.52 20.64-8.98 1.26-.9 2.22-1.54 3.85-1.37-6.41 7.89-13.33 15.18-22.21 20.31l-.53.28-2.04.9c-1.5-1.6-2.94-3.26-4.39-4.9l.88-2.03c-1.85-3.39-4.83-4.99-8.09-6.75 3.41-1.62 6.71-2.96 9.11-6.03-.46-.67-.92-1.34-1.39-2.01 3.61-3.25 8.83-7.68 9.39-12.78-1.17.15-2.33.29-3.5.44 5.9-7.67 9.05-17.29 11.56-26.49 3.45-10.09 7.82-20.05 10.66-30.4 1.8-8.51 6.86-16.33 10.43-24.39 3.02-6.95 7.27-13.16 11.99-19.04 1.78-2.25 4.01-3.92 6.49-5.34Z" fill="#eddbcd"/><path d="M487.11 27.26c1.48.36 2.82.53 3.76 1.87 3.02 4.1 3.93 9.92 4.32 14.86.98 13.97-2.64 27.75-5.91 41.21-1.73 7.44-4.6 14.32-7.57 21.33-5.98 13.92-13.47 27.13-22.96 38.96-1.63-.17-2.59.47-3.85 1.37-6.12 4.46-13.3 7.28-20.64 8.98 2.29-1.28 4.31-1.77 4.9-4.71 6-2.24 11.72-5.04 15.33-10.58.27-.85.3-1.8.08-2.88 8.23-8.04 14.81-18.48 16.98-29.88-.75-.43-1.51-.85-2.26-1.28 4.82-8.93 7.03-18.52 8.32-28.52.69-5.95 1.55-12.08.11-17.94.67-.27 1.35-.54 2.02-.8.97 2.59 1.93 5.17 2.9 7.76 1.84-7.35 3.04-14.58 3.68-22.13.78 2 1.55 4.01 2.31 6.03 1.01-8.1 1.59-15.9-1.52-23.65Z" fill="#c0a9bb"/><path d="M473.25 38.02c-5.16 9.54-9.19 19.58-13.89 29.36-2.77 5.57-3.42 11.6-5.66 17.34-3.09 8.62-6.14 17.25-9.15 25.91-2.87 7.39-5.26 14.72-9.75 21.17-2.21 3.28-5.03 5.5-7.78 8.28 2.74-.99 5.41-2.15 8.1-3.27-3.64 5.81-9.01 9.91-15.21 12.69 1.46.2 2.92.42 4.37.65-3.15 2.29-6.65 3.22-10.37 4.12 2.63-2.16 4.92-4.65 7.15-7.22-1.75.13-3.5.27-5.25.38 3.95-4.69 8.96-8.07 12.53-13.15-1.46.58-2.92 1.17-4.37 1.77 1.75-2.24 3.64-4.49 5.12-6.9 4.44-7.75 8.81-15.5 12.38-23.7 2.99-6.65 6.36-13.42 8.31-20.45-1.59 2.06-3.15 4.13-4.83 6.12.36-1.9.78-3.76 1.61-5.52 2.48-5.29 4.88-10.61 7.27-15.94l-1.87-.06c3.15-6.79 6.73-13.45 11.13-19.52 3.17-4.36 5.82-8.72 10.16-12.06Z" fill="#8e3843"/><path d="M477.72 60.05c1.44 5.86.58 11.99-.11 17.94-1.29 10-3.5 19.59-8.32 28.52.75.43 1.51.85 2.26 1.28-2.17 11.4-8.75 21.84-16.98 29.88.22 1.08.19 2.03-.08 2.88-3.61 5.54-9.33 8.34-15.33 10.58-1.08.16-2.17.3-3.25.43 5.98-2.77 11.69-5.55 16.23-10.47-2.95 1.31-5.88 2.59-9.01 3.42 3.37-2.91 7.29-4.73 10.37-8.02 6.94-7.3 12.24-16.04 15.43-25.6-4.41 4.77-9.34 8.51-14.94 11.79 2.36-2.54 4.67-5.11 7.21-7.48 3.95-3.47 6.61-8.58 8.58-13.39 4.9-12.17 6.67-25.85 7.06-38.88-3.62 5.6-7.42 11.24-11.87 16.23 2.29-4.86 5.39-9.45 8.15-14.08 1.39-2.03 2.09-4.18 4.6-5.03Z" fill="#402c24"/><path d="M375.74 116.87c4.94.52 9.05 3.66 13.21 6.14 2.61 1.74 6.07 3.7 7.56 6.54 1.13 1.78-.36 4.07-1.56 5.41-2.26 2.91-6.06-.31-8.86-.89 5.1 6.16 10.35 11.27 13.11 19.16-2.2-1.44-4.17-3.15-6.07-4.97 2.55 6.13 6.03 11.46 7.61 18 1.36 5.78 2.61 11.87 2.34 17.82-7.52-5.83-13.92-13.44-17.91-22.12-.99 2.93-.9 5.85-.71 8.89-2.19-2.54-4.18-4.89-4.87-8.28-.56-3.56-.52-7.2-1.03-10.77-2.59 2.89-3.7 6.56-6.18 9.56-1.74 2.33-3.97 4.09-6.39 5.68.37-1.1.75-2.19 1.14-3.28 1.03-2.59 2.06-5.16 2.86-7.83-3.68 3.2-7.24 6.29-11.73 8.31-7.6 3.48-13.57 7.79-21.95 8.99.09-.7.17-1.4.26-2.1-6.96 1.49-14.43 3.24-21.57 2.98-3.02-.08-6.05-.01-9.07-.08l-1.04-.77c5.05-6.47 11.43-11.65 18.66-15.5 3.67-1.81 7.26-2.43 9.81-5.94-4.62.58-8.42 3.05-13.2 2.94 4.1-3.09 8.16-6.22 12.18-9.42 2.59-1.94 5.16-4.33 8.13-5.57 1.77-.75 3.47-1.46 4.95-2.73-2.05-.24-4.12-.41-6.18-.55 6.24-2.54 12.49-3.81 19.15-4.64-1.58-1.44-3.4-1.21-5.39-1.2-6.57.39-12.97 2.09-18.34 6.02-2.99 2.27-6.37 3.01-10.03 3.36 3.04-4.03 8.24-6.52 12.57-8.96 5.03-2.84 10.65-3.2 15.83-5.51-6.05-1.61-12.1-1.46-18.3-1.63 1.61-.78 3.22-1.55 4.91-2.16 9.46.17 18.87.56 28.29 1.5 5.95.68 11.15 3.62 17.11 4.35-1.27-2.09-2.54-4.51-4.42-6.09-1.73-1.45-3.44-2.9-4.88-4.66Z" fill="#5d362f"/><path d="M373.58 119.62c2.45.85 4.31 2.3 7.04 1.91 1.88 1.58 3.15 4 4.42 6.09-5.96-.73-11.16-3.67-17.11-4.35-9.42-.94-18.83-1.33-28.29-1.5 2.77-1.06 5.49-2.05 8.46-2.4 8.83-.83 16.7-2.08 25.48.25Z" fill="#4b2a2b"/><path d="M406.68 119.05c-.23 1.08-.47 2.16-.72 3.24l-.74 1.68c-1.43-.55-2.56-1.25-3.75-2.22 1.53-1.34 3.32-2.04 5.21-2.7Z" fill="#494a4b"/><path d="M369.99 155.93c-.8 2.67-1.83 5.24-2.86 7.83-7.06 4.33-13.44 9.15-21.49 11.73-5.75 1.84-11.62 4.79-17.64 4.38-7.38-.36-15.79-1.71-22.07-5.84 3.02.07 6.05 0 9.07.08 7.14.26 14.61-1.49 21.57-2.98-.09.7-.17 1.4-.26 2.1 8.38-1.2 14.35-5.51 21.95-8.99 4.49-2.02 8.05-5.11 11.73-8.31Z" fill="#4b2a2b"/><path d="M376.89 160.87c1.86 5.9 4.08 9.49 8.28 13.98-4.91 2.98-7.95 7.61-12.34 11.13 2.48-4.54 5.92-8.16 9.4-11.91-1.84-1.88-3.56-3.74-5.58-5.44l-.2-.16c-4.66 6.1-8.9 11.61-17.05 12.78.5-1.14 1-2.28 1.5-3.43-4.62 1.88-8.86 4.29-13.77 5.45-9.42 2.74-19.25 3.52-29.02 2.82.28-1.33.56-2.66.85-3.99 3.8.4 7.4.84 11.23.25 10.14-1.63 19.94-5.48 28.61-10.97 1.72.3 3.22 1.02 4.92.3 5.48-2.41 9.37-6.33 13.17-10.81Z" fill="#8e3843"/><path d="m376.45 168.47.2.16c2.02 1.7 3.74 3.56 5.58 5.44-3.48 3.75-6.92 7.37-9.4 11.91-1.23.98-2.63 2.01-4.15 2.48-1.14-.22-2.26-.65-3.37-1-.04.42-.08.85-.11 1.27.89.9 1.78 1.81 2.67 2.71 1.45-.13 2.89-.27 4.33-.4.67 5.07-.99 9.89-.12 14.98.76 4.67 2.5 9.26 4.34 13.6.72 1.95 2.25 2.71 3.87 3.8-5 5.21-10.24 9.63-16.62 13.08l-1.76-1.13c-3.34 1.66-5.72 4.68-9.44 5.89-6.98 2.94-13.53 1.42-20.56-.28l-.29 1.89c-.91-1-1.81-1.99-2.72-2.98.81-2.15 1.43-4.16 3.29-5.67 3.67-3.08 8.71-7.17 9.47-12.21.44-6.21-.93-13.24-3.88-18.74-2.98-2.84-8.29-3.75-11.78-1.26-2.53 1.76-4.04 5.15-5.02 7.99-1.42 4.55-1.93 9.63.73 13.85-2.88.96-5.45 2.07-6.69 5.06l-2.18.74c1.34-3.09 3.34-6.38 3.5-9.79.46-11.71-1-22.28 1.77-33.77 9.77.7 19.6-.08 29.02-2.82 4.91-1.16 9.15-3.57 13.77-5.45-.5 1.15-1 2.29-1.5 3.43 8.15-1.17 12.39-6.68 17.05-12.78Z" fill="#af4849"/><path d="M387.14 170.29c1.74-.86 3.11 3.29 1.01 3.56-1.45-.26-1.83-2.54-1.01-3.56Z" fill="#7b343a"/><path d="M450.81 170.83c1.63 2.83 2.53 6.05 5.32 7.94 1.91 1.39 3.51 3.09 5.29 4.63 1.6.22 3.27.09 4.89.06-2.16 5.21-5.92 9.55-9.38 14.01 1.71-.6 3.43-1.18 5.16-1.74-2.27 5.94-5.42 11.36-10.7 15.1 2.67.81 5.18.51 7.9.16-2.38 3.84-5.97 5.99-9.89 7.99-.95-6.05-4.53-10.78-5.84-16.66-1.18-2.88-4.46-5.02-6.61-7.21.34-.97.67-1.94 1.01-2.92-1.41.57-2.83 1.14-4.25 1.68 2.09-4.53 5.61-7.7 8.33-11.82-2.78.63-5.54 1.35-8.32 2 2.39-2.18 5.11-3.84 7.79-5.62 3.36-2.26 6.1-5.14 9.3-7.6Z" fill="#5d362f"/><path d="M390.24 174.35c2.23 2.25 4 4.92 6.23 7.18 2.08 2.09 4.26 4.05 6.09 6.37-2.6-.77-5.11-1.76-7.64-2.72l2.18-.3c-3.27-2.7-6.67-5.23-9.73-8.2.95-.78 1.88-1.6 2.87-2.33Z" fill="#8b3841"/><path d="M387.37 176.68c3.06 2.97 6.46 5.5 9.73 8.2l-2.18.3c-6.24-1.4-10.55-1.29-16.63.67 2.44-3.81 5.5-6.49 9.08-9.17Z" fill="#af4849"/><path d="M312.08 182.32c.86.24 1.64.6 2.33 1.08-.48 3.19-1.09 6.35-1.44 9.56 1.05-4.04-1.05-6.09-3.11-9.17.73-.5 1.48-.99 2.22-1.47Z" fill="#545555"/><path d="M386 186.59c6.27.26 12.51 2.38 17.91 5.54 3.17 2.24 6.08 5.22 4.4 9.4-1.66 3.13-4.49 5.74-6.67 8.53-.65-3.37-1.34-6.6-3.23-9.52-3.41-5.28-7.94-10.12-14.45-11.12-3.49-.42-6.29.91-9.39 2.22 3.14-2.95 7.08-4.88 11.43-5.05Z" fill="#fff"/><path d="M326.02 190.76c4.14.54 7.57 3.11 10.98 5.31 1.1-.62 2.2-1.23 3.31-1.83-.84 1.53-1.35 3.53-3.33 3.9-1.99-.19-3.89-1.57-5.69-2.4-3.92-2.09-8.05-3.07-12.28-4.31 2.27-.41 4.73-1.01 7.01-.67Z" fill="#4b2c26"/><path d="M386.87 192.19c7.62 3.46 11.78 10.24 14.07 18.03-1.9 1.92-3.88 3.67-6.01 5.32-.85-5.56-2.31-8.72-5.73-13.1 1.17-2.01 1.13-3.08.56-5.31-2.28-.13-3.44.59-5.23 1.84-1.84-.13-3.76-.46-5.59-.22-2.11.68-3.63 3.05-5.06 4.64.11-2.69-.6-6.33.78-8.73 3-3.6 8.02-4.24 12.21-2.47Z" fill="#70aade"/><path d="M364.14 192.23c1.05-.9 3.17.33 2.42 1.68-1.1.96-3.28-.24-2.42-1.68Z" fill="#783835"/><path d="M430.51 194.75c.4 1.44.86 2.86 1.31 4.28l1.43-1.22c1.25.94 2.45 1.92 3.66 2.9-.61.65-1.23 1.3-1.84 1.95 3.08 2.76 5.64 5.44 5.92 9.81l-1.49-1.35c-.83-.49-1.68-.94-2.55-1.36 2.35 5.44 3.37 11.24 2.74 17.14-1.28 4.89-3.92 9.53-6.25 13.99l-.6-4.12c-2.87 5.31-4.83 10.49-9.21 14.86-4.57 4.46-9.93 8.17-15.03 12.01-5.15 3.86-11.51 5.02-15.86 9.45-1.49-8.13-4.25-15.39-12.24-19.06 3.61-2.11 6.85-4.77 9.64-7.89 4.6-5.32 6.96-11.43 11.01-17.05 1.72-.89 3.38-1.7.77-3.11-3.12.83-5.63 2.65-7.92 4.86.34.63.67 1.26 1 1.89-2.16 4.44-3.97 9.35-7.04 13.25-2.53 3.2-5.72 5.29-9.11 7.47-5.3-1.64-9.99-.14-15.32.32-7.88 1.57-15.47 5.54-22.79 8.77-2.45-2.15-5.1-3.92-7.9-5.57-1.87-5.99-5.36-10.36-3.94-17.08.91.99 1.81 1.98 2.72 2.98 4.68.59 8.76 2.02 13.38 2.08 3.37.08 6.62-1 9.69-2.27 3.59-1.48 5.72-4.11 8.98-6.18 6.38-3.45 11.62-7.87 16.62-13.08l.79-.6c3.35-.77 6.65-1.43 9.74-3.02 4.93-2.33 8.52-5.85 12.52-9.46 3.37-3.11 5.55-6.82 8.62-10.17 5.62-3.72 11.65-6.33 18.55-5.42Z" fill="#eddbcd"/><path d="M435.48 196.55c2.56 1.46 4.33 3.72 6.15 5.97-1.15-.1-2.3-.21-3.44-.31 4.8 4.01 7.2 9.55 8.42 15.57-1.98-1.67-3.8-3.48-5.62-5.31-.28-4.37-2.84-7.05-5.92-9.81.61-.65 1.23-1.3 1.84-1.95-1.21-.98-2.41-1.96-3.66-2.9.64-.4 1.44-1.4 2.23-1.26Z" fill="#c1aabb"/><path d="M341.28 197.23c1.7-1.2 2.31 1.23.57 1.7-.94-.18-1.13-.74-.57-1.7Z" fill="#773835"/><path d="M389.76 197.13c.57 2.23.61 3.3-.56 5.31-.76.64-1.52 1.27-2.29 1.9-.85-.7-1.69-1.4-2.54-2.1.05-1.09.11-2.18.16-3.27 1.79-1.25 2.95-1.97 5.23-1.84Z" fill="#f6faff"/><path d="M333.52 202.64c2.62 1.4 3.44 3.91 4.58 6.45-1.57-1.41-3.2-3.29-5.17-4.1-2.88-1.04-5.47-.28-8.27.49 2.79-3.03 4.78-3.45 8.86-2.84Z" fill="#fff"/><path d="M331.03 206.34c3.48.32 5.65 3.59 6.9 6.52 1.48 4.13 3.22 7.8.99 12.05-.24-3.93-.85-7.4-2.67-10.92.19-.75.38-1.49.56-2.24-.35-.49-.72-.98-1.09-1.45-.95.01-1.9.02-2.85.04-2.1.08-3.76-.53-5.45 1.12-3.42 3.51-2.01 8.99-1.92 13.36-2.6-1.19-3.27-3.48-4.56-5.79 1.23-3.63 1.99-7.8 4.03-11.05 1.16-2 4.07-1.98 6.06-1.64Z" fill="#70aadf"/><path d="M335.72 210.3c.37.47.74.96 1.09 1.45-.18.75-.37 1.49-.56 2.24-1.21.23-2.66.99-3.88.66-.78-1.51.15-2.79.5-4.31.95-.02 1.9-.03 2.85-.04Z" fill="#d4dbe2"/><path d="M436.95 209.76c.87.42 1.72.87 2.55 1.36-.9 1.85 2.09 3.89 2.81 5.55 3.61 5.5 1.64 11.3-.89 16.74-4.95 8.91-11.68 15.87-19.32 22.49-2.83 2.38-3.87 6.6-5.68 9.76-.26.6-.52 1.2-.76 1.81-4.17 1.1-7.68 3.95-11.14 5.84-4.03-.2-7.74-.03-11.73.64l-.05-.86c4.35-4.43 10.71-5.59 15.86-9.45 5.1-3.84 10.46-7.55 15.03-12.01 4.38-4.37 6.34-9.55 9.21-14.86l.6 4.12c2.33-4.46 4.97-9.1 6.25-13.99.63-5.9-.39-11.7-2.74-17.14Z" fill="#c0a9bb"/><path d="M199.03 215.91c6.37 1.26 12.01 5.1 17.16 8.89 5.27 4.22 9.96 8.97 12.99 15.08 1.32 2.62 3.33 4.56 5.36 6.61 2.14 2.12 2.94 4.83 4.75 7.12 3.2.6 5.48-.83 8.28-2.03 6.8-3.17 15.12-3.04 21.92.05 4.87 2.23 9.42 4.57 12.6 9.05-.43.8-.87 1.6-1.29 2.41-2.24-2.84-4.89-5.19-8.18-6.73-3.55-1.71-7.58-3.99-11.59-3.96-3.73-.11-7.3-.09-10.9 1.01-2.9.78-5.35 2.74-7.83 4.39-2.11-1.24-4.05-2.68-5.9-4.28-.25 3.06-.27 6.02.3 9.05-.36.52-.72 1.04-1.08 1.55-.09-4.09-.13-8.11-.98-12.13-.41-1.41-.31-3.08-1.9-3.67-1.61-.96-3.42-1.04-4.18-2.88-2.22-4.42-4.11-8.76-7.6-12.39-4.65-5.3-10.46-9.16-16.7-12.34-3.92-1.67-7.82-3.74-11.78-.92-.9.48-1.79.96-2.67 1.46.31-1.13.69-2.22 1.13-3.29 2.22-1.56 5.37-2.77 8.09-2.05Z" fill="#7c7d7d"/><path d="M192.48 219.79c-.01 1.84-.02 3.68-.04 5.52-1.49.44-3.22.67-4.55 1.49-2.41 2.19-3.99 5.48-5.41 8.37l-.64-1.71c-2.89.8-5.62 1.95-8.42 3.01-6.47-1.45-12.89-1.05-19.45-1.06-5.31.02-10.44 2.86-13.27 7.35-1.55 6.41 2 11.16 5.38 16.17 3.12 4.23 6.09 8.45 9.92 12.07 2.88 3.55 5.7 7.24 8.42 10.9.02 4.39-2.33 8.84-3.43 13.08-8.57 2.58-17.08 6.17-25.24 9.79-5.21 2.55-10.65 4.26-15.56 7.42-6.58 3.61-12.9 7.52-18.66 12.35-3.96 3.86-6.79 8.85-7.03 14.47.97 4.81 3.76 9.86 7.84 12.7 2.07 1.6 3.89 3.47 6.02 4.95 13.89 8.78 28.19 16.25 44.65 18.73 4.77.47 9.63.07 14.42.07-.39 1.85-.6 3.66-.68 5.55-2.85 4.09-5.35 8.01-5.33 13.2 1.02.88 2.03 1.76 3.03 2.66.02 3.97-.75 7.34 1.89 10.69 1.82 3.34 5.16 3.83 8.62 4.1l.17 2.85c-4.1-.25-8-1.75-10.62-5.03-2.66-3.11-3.08-7.21-4.15-11.04-1-3.8-1.75-7.53-.21-11.32.68-2.15 1.92-4.16 1.29-6.45-1.54-1.63-4.09-1.69-6.17-2.07-12.46-1.51-24.15-5.85-35.16-11.76-8.06-4.53-17.15-9.65-23.27-16.69-3.63-4.37-6.48-10.84-4.22-16.46 2.97-9.76 11.16-14.67 19.19-19.9 10.85-6.16 22.21-11.51 33.73-16.29 3.29-1.42 6.79-2.44 9.97-4.08 4.4-2.3 6.57-8.6 3.84-12.91-5.41-8.94-13.49-15.2-18.54-24.39-2.46-4.54-4.83-9.36-2.12-14.43 1.9-4.42 5.74-6.34 9.95-8.07 4.64-1.82 10.44-1.22 15.37-1.27 4.17-.07 7.95 1.27 12.03 1.83 2.57.28 4.25-1.64 5.54-3.59 2.28-3.53 4.9-6.75 8.23-9.34.88-.5 1.77-.98 2.67-1.46Z" fill="#767777"/><path d="M194.55 220.55c5.51.23 10.97 3.48 15.58 6.29 9.62 5.99 16.17 16.06 18.31 27.13.68-1.12.69-5.24 2.63-4.38 2.46 4.12 2.17 10.19 2.03 14.84-2.94-2.55-2.22-5.63-2.51-9.14-.71 3.02-1.14 5.82-3.56 8.01-.29-3.5-.03-7.16-.73-10.59-2.42-9.3-8.11-17.78-16.17-23.1-3.96-3.15-8.21-5.15-13.04-6.6.03.76.07 1.51.11 2.27.13 2.47.3 4.94.45 7.41-.91 4.59-1.59 9-3.23 13.3-.77-2.57-1.03-4.37-.38-6.97 1.18-6.3 1.48-12.11.51-18.47Z" fill="#251913"/><path d="M197.09 223.01c4.83 1.45 9.08 3.45 13.04 6.6 1.52 8 4.09 17.5 2.13 25.51.28-4.51.52-8.72-1.36-12.95-2.45-6.07-6.58-10.39-10.93-15.12-.88-.94-1.59-1.36-2.77-1.77-.04-.76-.08-1.51-.11-2.27Z" fill="#8c4b3c"/><path d="M321.71 223.85c4.82 1.58 9.82 2.25 14.55 4.19-3.17 3.37-6.97 5.25-8.21 9.94-1.89 6.13-.55 14.14 4.11 18.78-3.84-1.2-7.35-1.17-11.29-.63-3.73-5.5-6.64-11.17-6.69-17.99-.92 1.08-1.83 2.17-2.8 3.21.05-2.07-.14-4.31.75-6.23 1.02-2.09 2.4-3.87 2.89-6.21 1.24-2.99 3.81-4.1 6.69-5.06Z" fill="#ecdacc"/><path d="M199.97 227.05c4.35 4.73 8.48 9.05 10.93 15.12 1.88 4.23 1.64 8.44 1.36 12.95-.66 2.78-2.12 5.27-2.85 8.01.23.68.48 1.35.76 2.01-1.98 4.63-5.19 8.21-8.35 12.04-.2 1.19-.04 2.87-.85 3.81-5.65 6.47-13.06 9.01-21.15 11.04 3.56-6.38 8.34-12.32 11.2-19.09 1.59-3.57 2.74-7.29 3.72-11.06 1.32-5.08 3.08-9.79 3.59-14.88.49-4.88-.13-9.48-.68-14.31-.15-2.47-.32-4.94-.45-7.41 1.18.41 1.89.83 2.77 1.77Z" fill="#b06242"/><path d="M190.95 227.9c1.08 1.43 1.51 3.42 2.07 5.11-.55.22-1.09.44-1.63.66-.33-.82-.66-1.65-.98-2.47-5.4 7.98-9.79 17.24-11.42 26.78-.85 4.54-.47 8.68-2.33 12.99-.31-2.25-.48-4.56-1-6.77-.49-1.96-2.25-3.15-3.64-4.46-.75 7.45-1.93 14.84-2.97 22.25-.53 4.1-1.93 7.89-3.45 11.7l-1.28-.91c.78-3.81 3.15-8.28 2.49-12.18 2.89-7.93 1.89-17.19 3.18-24.86 2.34 1.32 4.19 3.16 5.99 5.13 1.47-5.93 2.49-11.88 4.84-17.57-3.45-.7-6.86-1.63-10.31-2.33-6.91-1.4-14.93-1.65-21.61.89-2.86 1.28-4.41 2.95-3.54 6.24 3.77 7.51 9.41 14.11 13.84 21.28l-.36 1.33c-5.3-5.64-9.98-11.9-14.13-18.43-1.96-3.15-3.22-7-.63-10.21 2.45-2.6 6.47-3.84 9.91-4.34 9.47-.86 18.93.75 27.74 4.28 2.05-4.21 4.22-8.6 6.86-12.48.56-.94 1.35-1.48 2.36-1.63Z" fill="#231611"/><path d="M210.13 229.61c8.06 5.32 13.75 13.8 16.17 23.1.7 3.43.44 7.09.73 10.59 2.42-2.19 2.85-4.99 3.56-8.01.29 3.51-.43 6.59 2.51 9.14-.11 1.27-.27 2.52-.44 3.78-.33-1.12-.68-2.24-1.05-3.35-1.38 4.13-1.36 9.2-4.45 12.26-5.49 6.08-12.61 8.22-20.11 10.65 5.33.64 10.88-1.78 15.47-4.29 5.3-3.17 8.65-7.54 13.08-11.67.54 1.71 1.1 3.43 1.57 5.16.68 12.24-3.47 22.42-5.38 33.99-1.57-4.82-4.68-8.71-9.78-9.96-4.69-1.53-8.98.49-12.7 3.27-4.38 3.49-8.13 8.15-9.35 13.72-1.13 4.07-.08 8.56 1.73 12.27 1.72 3.27 3.78 6.33 7.42 7.64 3.79 1.52 7.63 1.15 11.5.16-.48 3.22-1.07 6.43-1.44 9.66-1.02-.13-2.07-.13-3.12 0-.49-.57-1-1.12-1.49-1.68-.17 1.41-.33 2.82-.5 4.22-1.6 1.24-2.26 1.57-2.36 3.73-.35 3.86-.16 9.55 2.91 12.38 2.34 2.08 5.06-.38 7.22-1.48 5.08 14.04 16.72 26.54 30.96 31.44 1.8.65 3.6 1.32 5.39 1.99-3.28 1.51-6.55 2.97-10.08 3.81-6.15 1.46-11.81 3.24-18.1 3.8-5.4.48-10.56 1.83-16 1.93-7.02.12-13.79.83-20.79-.15-7.15-.91-14.33-1.23-21.51-1.81 1.2-3.58 4.11-5.09 6.57-7.93-3.7-.13-6.33 1.77-9.51 3.27.06-3.03.38-5.95 1.7-8.73.93-2.64 4.16-3.9 6.36-5.4-3.11.34-6.14.98-9.17 1.73 1-2.89 2.35-5.5 4.42-7.78 2.57-3.16 6.18-4.21 9.17-7.01-2.52.39-4.95 1.05-7.37 1.83 3.38-3.95 7.4-6.59 10.11-11.02-2.68 1.66-5.14 3.55-8.05 4.82-.2.58-.4 1.16-.62 1.73l-1.08-.27c-3.14-1.08-6.88.12-10.23.02-11.91-.07-23.38-3.16-34.11-8.23-.43-2.18-.88-4.36-1.35-6.53-4.62-2.62-9.13-5.44-13.63-8.26-2.39-1.62-5.48-3.73-6.53-6.52-1.08-2.4.95-5.04 2.61-6.62 4.6-4.18 9.97-8.02 15.85-10.15 1.22-.63 3.1-.86 3.47-2.34 1.23-3.85 1.77-7.85 3.39-11.6 8.13-3.6 16.32-7.39 24.67-10.44 4.72-1.79 9.37-2.59 13.78-5.12-2.91.03-5.73.33-8.54 1.14.2-1.25.44-2.48.71-3.71l1.28.91c1.52-3.81 2.92-7.6 3.45-11.7 1.04-7.41 2.22-14.8 2.97-22.25 1.39 1.31 3.15 2.5 3.64 4.46.52 2.21.69 4.52 1 6.77 1.86-4.31 1.48-8.45 2.33-12.99 1.63-9.54 6.02-18.8 11.42-26.78.32.82.65 1.65.98 2.47.54-.22 1.08-.44 1.63-.66.54 1.98.99 3.95 1.02 6.01-.65 2.6-.39 4.4.38 6.97 1.64-4.3 2.32-8.71 3.23-13.3.55 4.83 1.17 9.43.68 14.31-.51 5.09-2.27 9.8-3.59 14.88-.98 3.77-2.13 7.49-3.72 11.06-2.86 6.77-7.64 12.71-11.2 19.09 8.09-2.03 15.5-4.57 21.15-11.04.81-.94.65-2.62.85-3.81 3.16-3.83 6.37-7.41 8.35-12.04-.28-.66-.53-1.33-.76-2.01.73-2.74 2.19-5.23 2.85-8.01 1.96-8.01-.61-17.51-2.13-25.51Z" fill="#362f2c"/><path d="m312.21 230.16.52-.05.05.53-.53.04-.04-.52Z" fill="#c1b4b2"/><path d="m181.84 233.46.64 1.71c-.48 1.15-.96 2.31-1.45 3.47-2.64-.4-5.12-1.25-7.61-2.17 2.8-1.06 5.53-2.21 8.42-3.01Z" fill="#6b6c6c"/><path d="m361.91 235.37 1.76 1.13c-3.26 2.07-5.39 4.7-8.98 6.18-3.07 1.27-6.32 2.35-9.69 2.27-4.62-.06-8.7-1.49-13.38-2.08l.29-1.89c7.03 1.7 13.58 3.22 20.56.28 3.72-1.21 6.1-4.23 9.44-5.89Z" fill="#5b3f37"/><path d="m446.68 235.37 1.65.83c-.4 2.34-.88 4.68-1.27 7.03-1.68-.27-3.34-.6-5-.94 1.1-2.48 1.91-5.75 4.62-6.92Z" fill="#454647"/><path d="M170.51 240.97c-.79 1.36-1.54 2.74-2.28 4.13-7.47-1.7-14.78-.76-22.11 1.12l-.76 1.88c-.87-3.29.68-4.96 3.54-6.24 6.68-2.54 14.7-2.29 21.61-.89Z" fill="#8e4b3c"/><path d="M170.51 240.97c3.45.7 6.86 1.63 10.31 2.33-2.35 5.69-3.37 11.64-4.84 17.57-1.8-1.97-3.65-3.81-5.99-5.13-1.29 7.67-.29 16.93-3.18 24.86-2.79-3.19-5.29-6.61-7.97-9.89l.36-1.33c.98-3.14 1.36-6.4 2.2-9.56 1.5-5.1 4.39-10 6.83-14.72.74-1.39 1.49-2.77 2.28-4.13Z" fill="#362f2c"/><path d="M168.23 245.1c-2.44 4.72-5.33 9.62-6.83 14.72-.84 3.16-1.22 6.42-2.2 9.56-4.43-7.17-10.07-13.77-13.84-21.28l.76-1.88c7.33-1.88 14.64-2.82 22.11-1.12Z" fill="#ae6142"/><path d="M348.24 247.17c1.46-.68 2.75 3.31 2.47 4.39-1.35.24-3.3-3.34-2.47-4.39Z" fill="#9f8c81"/><path d="M435.11 247.09c3.66-1.05 8.03-.22 11.78.07-1.05.83-2.1 1.65-3.15 2.48 7.33.68 12.9 4.01 18.15 8.96-1.01.13-2.02.27-3.03.4 1.92 1.88 3.77 3.71 4.98 6.17 2.68 5.35 5.03 10.95 5.81 16.93.74 5.91.76 11.95.67 17.9-.26 14.35-4.1 28.22-6.12 41.99-.58 3.9-1.64 7.67-2.56 11.5-1.33 5.55-1.72 11.17-3.32 16.67-1.83 6.27-3.72 12.72-6.58 18.62-4.6 8.88-10.89 16.71-19.76 21.62-.5-.62-1-1.24-1.5-1.87-3.97 1.88-8.03 3.1-12.48 2.88-1.18-.23-4.16.14-4.29-1.46 1.67-1.24 4.19-1.42 6.17-2.05-.2.73-.4 1.45-.61 2.17 5.13-1.29 9.98-3.44 14.26-6.54 3.3-2.45 5.55-6.43 8.34-9.5-.84 2.66-1.79 5.28-2.74 7.91 7.91-7.4 10.72-16.49 14.5-26.29 3.18-9.57 5.24-19.68 6.55-29.67 2.51-12.95 4.1-26.04 6.72-38.97 1.66-7.14.7-15.17-.42-22.35-1.96-9.82-4.79-19.31-13.39-25.34.99-.33 1.99-.65 2.98-.97-2.28-2.36-5.05-4.13-8.21-5.05-3.04-.44-6.13-.48-9.18-.92-1.5-.26-2.28-.1-3.54.74-3.82 2.52-7.02 6.33-10.12 9.67.29-1.94.57-3.88.84-5.83-3.35 3.39-5.84 7.34-8.63 11.15l-.81-2.45c1.81-3.16 2.85-7.38 5.68-9.76l2.48-.34c3.85-2.27 6.69-6.21 10.53-8.47Z" fill="#8f3843"/><path d="m461.53 249.42 2.97-.82.5.42c2.06 1.88 4.22 3.89 5.77 6.23 1.64 2.52 2.27 5.87 3.15 8.73 1.17 4.15 3.01 7.8 3.9 12.01 2.76 11.36 1.17 23.87 1.64 35.69 3.6 3.78 8.13 5.21 12.91 6.87 6.53 2.14 12.98 4.46 19.63 6.22v2.72c-6.58-1.67-12.95-3.92-19.39-6.06-4.4-1.48-9.41-3.09-13.09-6-1.37-1.2-3.01-2.4-2.93-4.41-.27-8.66.12-17.36-.13-26.02-.29-6.05-2.04-11.64-4.18-17.25-1.4-3.62-1.94-7.9-3.97-11.21-1.92-2.63-4.42-4.88-6.78-7.12Z" fill="#b2b2b3"/><path d="M312.65 250.2c.82 1.73 1.9 3.28 3.04 4.8-2.32 1.65-3.69 3.81-6.87 3.42-.04-.57-.09-1.14-.13-1.7 1.94-1.85 2.95-4.08 3.96-6.52Z" fill="#4e4f50"/><path d="M438.68 252.38c3.05.44 6.14.48 9.18.92 3.16.92 5.93 2.69 8.21 5.05-.99.32-1.99.64-2.98.97 8.6 6.03 11.43 15.52 13.39 25.34 1.12 7.18 2.08 15.21.42 22.35-2.62 12.93-4.21 26.02-6.72 38.97-1.31 9.99-3.37 20.1-6.55 29.67-3.78 9.8-6.59 18.89-14.5 26.29.95-2.63 1.9-5.25 2.74-7.91-2.79 3.07-5.04 7.05-8.34 9.5-4.28 3.1-9.13 5.25-14.26 6.54.21-.72.41-1.44.61-2.17 2.65-1.49 4.64-3.58 6.79-5.68-3.02 1.99-7 5.12-10.68 5.2-9.51-2.28-17.02-10.11-23.06-17.4-14.49-19.05-19.8-44.3-35.81-63.26.2-2.32.38-4.63.53-6.95 8.07-4.28 16.03-8.55 23.35-14.07a270.05 270.05 0 0 0 23.95 25.3c11.65 11.3 22.12 23.01 29.27 37.74 2.33 5.13 3 10.57 4.43 16.11.14-4.4-.16-8.69-1.65-12.86-3.21-9.84-9.15-17.56-15.42-25.58-.92-1.46-2.49-2.47-1.51-4.36 5.32-12.07 8.71-24.97 9.97-38.11.35-2.11-.79-3.45-1.73-5.18.23 9.6-1.34 19.05-4.39 28.14-1.7 5.06-3.2 10.07-6.02 14.55-1.73-5.66-1.87-11.55-3.28-17.27-1.56-6.55-3.12-13.44-3.25-20.2-.05-6.09-.36-11.97.75-18 1.13-6.16 1.65-12.6 3.54-18.55.24-.61.5-1.21.76-1.81l.81 2.45c2.79-3.81 5.28-7.76 8.63-11.15-.27 1.95-.55 3.89-.84 5.83 3.1-3.34 6.3-7.15 10.12-9.67 1.26-.84 2.04-1 3.54-.74Z" fill="#af4849"/><path d="M236.4 253.52c1.85 1.6 3.79 3.04 5.9 4.28-2.07 1.37-3.99 2.85-5.6 4.77-.57-3.03-.55-5.99-.3-9.05Z" fill="#404142"/><path d="M371.17 254.17c6.65-.67 13.93 2.6 16.95 8.75 4.05 7.23 3.78 16.78 2.47 24.71-1.03 6.7-5.05 11.63-9.85 16.11-6.37 5.57-14.02 9.78-21.71 13.22-3.35 1.29-7.4 3.35-11.05 2.95-3.39-.83-6.23-3.3-9.99-3.62-3.44-.68-7.28 2.44-7.63 5.84-.38 2.74 1.7 4.81 3 7-2.68 1.94-5.46 3.37-8.53 4.57-5.91 2.27-10.25 5.85-16.85 6.17-2.93-.45-5.41-3.43-7.99-4.85-3.69-2.14-8.13-4.47-12.52-3.41-2.49.64-4.2 2.59-3.99 5.24.46 5.3 4.24 8.83 7.62 12.54-6.92 2.01-13.96 5.95-21.13 6.46-2.57.51-4.9-2.65-6.63-4.19-5.18-4.82-8.64-10.74-12.23-16.76-3.27-5.53-3.5-11.72-2.93-17.97.43-1.64 1.05-3.14 1.9-4.61.88-1.38 1.79-2.75 2.69-4.12 2.32 4.54 6.4 11.37 12.24 11.26 3.7-.06 4.66-1.89 6.04-4.9 4.45-.43 7.25-1.62 8.23-6.35 1.87.07 3.92.43 5.75-.02 2.58-1.04 4.8-3.23 4.9-6.16.5-4.73-1.75-8.03-4-11.9.94-.39 1.89-.78 2.83-1.17 2.95 3.63 6.14 7.18 11.26 6.94 3.16.11 4.52-2.44 6.32-4.54 2.72.42 5.08 1.21 7.59-.44 2.17-1.23 2.87-3.21 3.9-5.33 3.44 1.44 6.02 1.66 9.17-.61 4.8-3.91 5.22-10.55 4.3-16.25 3.56-1.53 7.05-3.18 10.51-4.92 4.75-2.4 9.77-4.13 14.63-6.34 4.53-2.08 9.8-2.79 14.73-3.3Z" fill="#d0a98e"/><path d="M258.97 254.82c7.44-.23 14.32 3.64 19.14 9.09 3.04 3.52 6.12 6.48 7.21 11.19-2.97-2.03-4.47-4.99-6.78-7.63-3.7-4.25-7.53-8-13.12-9.57 1.4 3.35 2.58 6.38 1.89 10.11-.2 4.52-2.54 7.88-4.08 11.91.4 2.02 1.27 3.98 1.99 5.91 3.65-.08 7.05-.19 10.42-1.75l1.59.39c-1.37.83-2.72 1.68-4.09 2.5-3.69-.09-7.21.1-10.64 1.6-3.71 1.9-6.3 4.93-8.59 8.33-.36.54-.7 1.09-1.05 1.65-2.17 3.63-4.08 7.1-3.74 11.5.31.76.63 1.52.96 2.27-.85 1.47-1.47 2.97-1.9 4.61-.73.74-1.45 1.48-2.18 2.21-.2-10.73 3.59-21.33 11.01-29.14 1.86-1.86 4.54-2.89 6.9-4.01-.69-1.6-1.38-3.19-2.06-4.79-2.35.92-5.3 2.66-7.86 2.13-4.87-.75-9.72-2.27-14.17-4.36-.88-.67-1.77-1.33-2.65-2-.47-1.73-1.03-3.45-1.57-5.16-4.43 4.13-7.78 8.5-13.08 11.67-4.59 2.51-10.14 4.93-15.47 4.29 7.5-2.43 14.62-4.57 20.11-10.65 3.09-3.06 3.07-8.13 4.45-12.26.37 1.11.72 2.23 1.05 3.35-.14 1.12-.29 2.24-.45 3.36 4.51-5.22 8.46-10.25 14.47-13.87 3.6-2.42 8.08-2.71 12.29-2.88Z" fill="#251914"/><path d="M262.88 257.25c1.16 1.58 1.65 3.72 2.27 5.57-3.29-.48-6.75-1.17-10.04-.5-4.81.94-8.81 3.72-13.62 4.73 2.27-4.67 6.4-7.5 11.02-9.55 3.14-1.36 7.1-.96 10.37-.25Z" fill="#8e4c3e"/><path d="M265.42 257.9c5.59 1.57 9.42 5.32 13.12 9.57 2.31 2.64 3.81 5.6 6.78 7.63l.1.1c0 3.69.89 7.18 1.71 10.77-3.85-1.67-7.23-3.87-11.49-1.89-3.37 1.56-6.77 1.67-10.42 1.75-.72-1.93-1.59-3.89-1.99-5.91 1.54-4.03 3.88-7.39 4.08-11.91.69-3.73-.49-6.76-1.89-10.11Z" fill="#5d514d"/><path d="M326 257.32c5.43-.26 8.93 2.7 13.09 5.6a291.47 291.47 0 0 0-7.4 4.5c-.88-1.12-1.76-2.24-2.65-3.36.54 4.41 1.67 9.45.69 13.82-1.05 2.8-2.95 6.01-5.7 7.39-2.45.4-5.34-.27-6.88-2.38-4.71-5.33-4.45-13.67-2.39-20.04 1.6-4.58 7.01-5.48 11.24-5.53Z" fill="#af4849"/><path d="M282.09 260.68c1.49 1.51 2.54 3.03 4.89 2.91 3.41.29 6.16-1.11 8.86-3 .46.77.92 1.55 1.37 2.33-.66.79-1.32 1.6-1.97 2.4-1.82.05-3.72-.06-5.51.29-1.63.73-3.07 1.96-4.49 3.03-1.53-1.81-3-3.67-4.44-5.55.42-.81.86-1.61 1.29-2.41Z" fill="#5b5c5c"/><path d="M255.11 262.32c3.29-.67 6.75.02 10.04.5 1.37 6.08-.86 12.78-5.47 16.92-3.18 2.81-8.88.92-12.5-.16-2.85-1.07-7.63-2.37-8.77-5.51-.08-2.46 1.93-4.92 3.08-7.02 4.81-1.01 8.81-3.79 13.62-4.73Z" fill="#ae6243"/><path d="M347.85 261.96c3.96.66 7.49 3.5 8.91 7.26.8 2.55-.2 5.07-1.69 7.15-.19-2.84.75-6.93-1.25-9.21-1.71-1.99-4.07-3.39-5.97-5.2Z" fill="#7e6151"/><path d="M312.4 262.96c-.19 3.65-.82 7.39-.58 11.04.37 4.36 2.61 7.51 4.85 11.09-1.98 3.27-4.28 6.16-8.57 4.76-7.9-4.14-11.67-15.38-7.64-23.4 2.11-4.11 8.11-3.07 11.94-3.49Z" fill="#af4849"/><path d="M415.66 267.47c-1.89 5.95-2.41 12.39-3.54 18.55-1.11 6.03-.8 11.91-.75 18 .13 6.76 1.69 13.65 3.25 20.2 1.41 5.72 1.55 11.61 3.28 17.27l-.21.41c-5.95-6.22-11.67-12.84-18.38-18.22-6.21-5.96-11.67-12.56-17.39-18.87 3.2-3.38 6.92-6.94 8.46-11.44 2.04-6.28 2.9-12.83 2.41-19.42 3.99-.67 7.7-.84 11.73-.64 3.46-1.89 6.97-4.74 11.14-5.84Z" fill="#ecdacc"/><path d="M296.8 269.21c-.22 4.07-.39 7.91 1.2 11.77 1.44 3.87 4.07 6.51 6.86 9.42-1.25 1.81-2.26 4.17-4.83 4.11-5.55-.03-9.95-5.39-11.33-10.36-1.09-4.03-2.2-9.44.29-13.16 1.53-2.54 5.29-1.61 7.81-1.78Z" fill="#af4849"/><path d="M361.91 274.96c3.29-.24 4.32.94 6.33 3.2-2.61-.33-4.39-1.53-6.33-3.2Z" fill="#9d7d68"/><path d="M237.17 276.97c.88.67 1.77 1.33 2.65 2 .48 6.05.36 12.1-1 18.04-1.34 5.99-2.73 12.38-5.83 17.7-.38-1.26-.78-2.51-1.2-3.75 1.91-11.57 6.06-21.75 5.38-33.99Z" fill="#b16242"/><path d="M239.82 278.97c4.45 2.09 9.3 3.61 14.17 4.36 2.56.53 5.51-1.21 7.86-2.13.68 1.6 1.37 3.19 2.06 4.79-2.36 1.12-5.04 2.15-6.9 4.01-7.42 7.81-11.21 18.41-11.01 29.14-.36 8.96 2.59 17.75 8.09 24.81 3.62 4.61 7.23 9.72 12.4 12.62 3.2 2 6.69 3.22 10.52 2.68 6.47-.77 10.74-4.86 15.73-8.42 3.15-.77 6.57.08 9.77-1.17-.47 1.4-1.09 2.62-1.96 3.83-2.86 3.96-4.91 8.15-8.31 11.72-6.91 7.42-14.45 14.45-22.81 20.2-4.09 3.07-8.53 5.56-12.78 8.38-.46-.1-.92-.2-1.38-.31-4.2-1.78-8.06-4.43-11.96-6.78-5.8-3.55-10.54-8.17-13.96-14.06-3.8-5.73-5.07-12.01-6.43-18.63-1.21-6.34.17-11.96 1.31-18.14 3.07-2.2 5.66-4.94 7.22-8.41 1.91-3.98 1.88-8.45 1.54-12.75 3.1-5.32 4.49-11.71 5.83-17.7 1.36-5.94 1.48-11.99 1-18.04Z" fill="#5e524d"/><path d="M277.23 284.47c3.39.53 6.51 1.24 9.6 2.78-.3.58-.6 1.15-.89 1.73l-3.74-.81c3.02 3.96 6.13 7.19 6.39 12.47.31 4.27-4.98 7.54-8.7 5.55-3.17-1.5-5.22-5.4-6.6-8.47-1.57-3.45-.7-7.17-.15-10.75 1.37-.82 2.72-1.67 4.09-2.5Z" fill="#af4849"/><path d="M344.32 287.83c-1.96 2.83-4.73 4.21-7.57 5.96-7.75 4.49-16.02 8.57-24.7 10.88 5.88-3.5 12.32-5.96 18.29-9.33 4.79-2.26 9.06-5.55 13.98-7.51Z" fill="#7b5f4f"/><path d="M262.5 288.57c-.39 2.39-1.63 4.65-2.65 6.85-1.98.48-3.96.98-5.94 1.48 2.29-3.4 4.88-6.43 8.59-8.33Z" fill="#844d37"/><path d="M270.63 291.07c.39 6.59 3.44 12.33 7.98 17.01-1.84 2.29-4.18 5.48-7.56 3.98-6.42-3.62-10.65-12.79-7.79-19.81 1.57-3.14 4.74-1.67 7.37-1.18Z" fill="#af4849"/><path d="M172.15 295.35c-4.41 2.53-9.06 3.33-13.78 5.12-8.35 3.05-16.54 6.84-24.67 10.44-8.86 4.3-18.03 8.86-25.74 15.04-3.63 3.09-8 6.99-8.46 12.04-.33 4.02 3.53 7.74 6.27 10.23 7.17 6.07 15.65 10.74 24.12 14.71 10.73 5.07 22.2 8.16 34.11 8.23 3.35.1 7.09-1.1 10.23-.02-13.7 4.73-28.35 1.26-41.36-3.98-10.24-4.42-20.39-9.84-28.89-17.13-2.75-2.45-5.52-5.64-6.64-9.2-.59-3.33-.02-6.73 1.94-9.53 3.86-5.78 10.46-10.13 16.31-13.72 15.12-8.75 31.51-15.45 48.02-21.09 2.81-.81 5.63-1.11 8.54-1.14Z" fill="#241712"/><path d="M259.82 297.16c.91 2.94 1.47 6.31 2.99 8.96 1.79 3.15 4.43 5.46 7.03 7.91-1.99 3.27-3.96 4.35-7.73 2.84-5.61-3.57-9.53-10.92-6.68-17.47.88-2.08 2.5-1.87 4.39-2.24Z" fill="#af4849"/><path d="M252.86 298.55c.01 2.39.15 4.95-.37 7.3-.66 1.61-2.23 2.9-3.37 4.2-.34-4.4 1.57-7.87 3.74-11.5Z" fill="#734532"/><path d="M222.01 301c5.1 1.25 8.21 5.14 9.78 9.96.42 1.24.82 2.49 1.2 3.75.34 4.3.37 8.77-1.54 12.75-1.56 3.47-4.15 6.21-7.22 8.41-1.18.77-2.38 1.51-3.62 2.19-3.87.99-7.71 1.36-11.5-.16-3.64-1.31-5.7-4.37-7.42-7.64-1.81-3.71-2.86-8.2-1.73-12.27 1.22-5.57 4.97-10.23 9.35-13.72 3.72-2.78 8.01-4.8 12.7-3.27Z" fill="#271a15"/><path d="M215.61 305.83c3.2-1.32 9-2.09 10.79 1.75 3.4 5.51 2.69 11.15 1.85 17.26-1.25 7.64-10.47 12.72-17.66 10.38-5.85-2.27-7.93-9.52-7.13-15.24.94-6.84 6.18-11.41 12.15-14.15Z" fill="#fff"/><path d="M301 308.15c-4.54 3.49-9.57 4.96-14.84 7.08-2.48 1-4.87 1.65-7.54 1.95 2.82-2.46 6.03-2.91 9.42-4.16 4.59-1.47 8.12-4.18 12.96-4.87Z" fill="#91725f"/><path d="M133.7 310.91c-1.62 3.75-2.16 7.75-3.39 11.6-.37 1.48-2.25 1.71-3.47 2.34-5.88 2.13-11.25 5.97-15.85 10.15-1.66 1.58-3.69 4.22-2.61 6.62 1.05 2.79 4.14 4.9 6.53 6.52 4.5 2.82 9.01 5.64 13.63 8.26.47 2.17.92 4.35 1.35 6.53-8.47-3.97-16.95-8.64-24.12-14.71-2.74-2.49-6.6-6.21-6.27-10.23.46-5.05 4.83-8.95 8.46-12.04 7.71-6.18 16.88-10.74 25.74-15.04Z" fill="#ae6142"/><path d="M469.92 316.64c3.38 2.16 5.89 5.11 9.41 7.04 7.52 4.28 16.68 6.46 24.94 8.98-4.48 1.65-8.67.62-13.26 1.14-5.93.51-11.61 1.9-15.8 6.41-1.91 1.89-2.09 4.99-2.72 7.5-1.8 7.78-3.59 15.86-6.64 23.19-2.06 4.95-3.38 10.12-5.68 14.98-1.68-.45-3.34-.92-5.03-1.31 4.7-12.03 7.14-25.04 9.51-37.7 2.35-9.95 3.64-20.17 5.27-30.23Z" fill="#8e3843"/><path d="M336.11 318.19c4.28-.73 8.75 2.49 12.87 3.23 2.64.28 5.51-.79 8.06-1.44-.74 2.45-1.41 5.18-2.69 7.4-2.06 3.59-6.25 5.97-10.38 5.88-4.48-.83-8.43-4.68-10.81-8.4-2.02-2.62.44-5.69 2.95-6.67Z" fill="#af4849"/><path d="m162.02 318.85.57 2.79c2.34-.84 4.66-1.72 6.96-2.65-.13 2.67-2.1 7.69 1.96 8.16-.08 2.99-.08 5.97.25 8.94-.28-.94-.57-1.87-.89-2.8-2.15 2.75-3.19 5.42-7.11 5.79l.41-1.08c.35-.98.67-1.97.96-2.97-4.99 3.08-9.35 7.96-15.78 6.39.38-.45.78-.9 1.18-1.35.75-.68 1.5-1.36 2.25-2.03-4.25.49-8.47.9-12.75.55 4.27-2.4 8.66-4.51 12.71-7.29-1.21-.07-2.42-.15-3.63-.24-1.18-.71-2.6-2.36-4.09-1.87-2.59.82-4.93 2.32-7.5 3.26-5.71-.2-11.66 2.44-16.87 4.58-1.75-2.5-4.05-2.06-6.74-2.53 5.64-4.32 12.16-7.55 18.89-9.75 5.12-1.19 10.21-2.04 15.07-4.17l1.35 2.43c4.81-.03 8.71-1.89 12.8-4.16Z" fill="#c2abc4"/><path d="M145.02 329.19c1.49-.49 2.91 1.16 4.09 1.87 1.21.09 2.42.17 3.63.24-4.05 2.78-8.44 4.89-12.71 7.29 4.28.35 8.5-.06 12.75-.55-.75.67-1.5 1.35-2.25 2.03-3.33 1.37-6.91 2.89-10.5 3.31-6.47.49-12.89-1.47-18.11-5.28 5.33-1.64 10.46-3.47 15.6-5.65 2.57-.94 4.91-2.44 7.5-3.26Z" fill="#efded7"/><path d="M356.24 328.03c1.03 1.22 2.07 2.41 3.03 3.7 6.58 9.87 12.11 20.32 16.79 31.22 3.66 8.65 8.57 16.57 13.52 24.52 6.16 8.76 13.24 16.44 23.33 20.63-.68 1.05-1.34 2.11-1.99 3.17 2.01.9 3.8 1.97 6.06 1.97 2.67.27 4.95-.61 7.15 1.13.77-.1 1.54-.22 2.3-.34l1.21 1.37c4.13-.04 8.4-1.67 11.79-3.99 4.51-3.07 9.1-5.01 12.34-9.64 3.88-4.44 5.62-9.77 8.37-14.83.95-.2 1.91-.32 2.89-.36 8 1.7 15.81 3.66 23.99 4.32-1.64.79-3.29 1.58-4.95 2.33 7.54 1.13 15.15 1.43 22.7 2.45-2.39.91-4.76 1.85-7.07 2.94 4.8.16 9.52-.33 14.3-.58v44.27c-28.69-3.22-56.48-6.7-83.83-16.46-12.27-4.68-24.44-9.92-34.82-18.15-3.51-2.74-6.17-6.1-9.08-9.41l-.38-.44c-4.59-4.25-5.19-9.51-7.67-14.96.68 5.58 2.35 10.77 3.85 16.15-6.5-5.12-11.39-12.28-14.23-20.02-1.57-4.16-2.07-8.43-2.95-12.75-1.97 3.3-.6 8.33-1.02 12.09-2.38-3.92-4.21-8.12-5.54-12.5-1.85-5.9-.73-12.86-.68-19.01-1.29 3.73-1.78 7.58-2.52 11.44-3.18-7.43-1.98-17.41-1.29-25.25 1.65-1.55 3.06-3.19 4.4-5.01Z" fill="#ecdacc"/><path d="M334.21 330.12c3.29 2.2 5.88 5.14 10.09 5.34 2.03-.15 4.05-.85 6.01-1.34-.99 7.8-1.59 15.27.55 22.96.98 2.73 3.13 4.61 3.62 7.6 1.42 6.48 4.05 12.81 8.37 17.89.62-.91 1.23-1.83 1.85-2.75 2.38 8.41 8.48 16.85 15.67 21.82 2.87 1.82 2.73-2.08 3.52-3.79l.38.44c-.04 2.15.33 4.24-.83 6.15-2.38 4.13-5.61 7.82-9.19 10.97-2.39-.52-4.53-1.21-6.69-2.33 1.04-.52 2.08-1.03 3.13-1.55-6.23-1.94-10.95-5.74-15.49-10.28 1.97.62 3.95 1.23 5.93 1.81-3.59-5.52-8.99-10.56-11.51-16.53-1.67-4.47-2.55-9.12-4.75-13.42-6.36-12.69-8.97-26.61-15.35-39.3 1.62-1.17 3.11-2.47 4.69-3.69Z" fill="#8e3843"/><path d="M137.52 332.45c-5.14 2.18-10.27 4.01-15.6 5.65 5.22 3.81 11.64 5.77 18.11 5.28 3.59-.42 7.17-1.94 10.5-3.31-.4.45-.8.9-1.18 1.35-4.07 2.38-8.01 4.19-12.42 5.85 6.6 1.71 13.67.68 19.47-2.89 2.74-1.93 5.27-4.17 7.77-6.38l-.41 1.08c-2.99 4.24-6.71 7.66-10.67 10.97 7.67-.78 12.95-6.46 17.68-11.95-1.14 4.11-4.57 7.24-7.89 9.71-3.93 2.61-7.71 5.14-12.63 3.49.59-.95 1.18-1.9 1.77-2.84-4.61 1.84-9.7 2.65-14.53 1.17-1.72-.48-2.41-1.09-3.31-2.63 1.02-.65 2.05-1.31 3.08-1.96-6.73.03-12.07-1.76-17.27-6.02l.66-1.99c5.21-2.14 11.16-4.78 16.87-4.58Z" fill="#251813"/><path d="M170.87 333.29c.32.93.61 1.86.89 2.8 1.38 6.7 1.88 13.24 4.98 19.48-1.4 1.28-2.8 2.76-4.45 3.71-8.77 3.08-17.31 2.32-26.29.73-12.68-2.7-26.07-8.32-35-18-2.61-2.91.77-5.71 2.91-7.51 2.69.47 4.99.03 6.74 2.53l-.66 1.99c5.2 4.26 10.54 6.05 17.27 6.02-1.03.65-2.06 1.31-3.08 1.96.9 1.54 1.59 2.15 3.31 2.63 4.83 1.48 9.92.67 14.53-1.17-.59.94-1.18 1.89-1.77 2.84 4.92 1.65 8.7-.88 12.63-3.49 3.32-2.47 6.75-5.6 7.89-9.71-4.73 5.49-10.01 11.17-17.68 11.95 3.96-3.31 7.68-6.73 10.67-10.97 3.92-.37 4.96-3.04 7.11-5.79Z" fill="#efded7"/><path d="M295.5 334.59c4.52 2.49 8.35 5.64 13.49 6.9-2.32 2.36-4.84 5.28-7.9 6.63-2.72 1.15-5.67 1.68-8.37.16-3.5-2.04-6.04-5.85-7.35-9.63-.54-1.62-.73-3.36.78-4.53 2.52-2.12 6.71-.81 9.35.47ZM504.27 332.66c2.58.66 5.17 1.22 7.73 1.93v63.45c-4.78.25-9.5.74-14.3.58 2.31-1.09 4.68-2.03 7.07-2.94-7.55-1.02-15.16-1.32-22.7-2.45 1.66-.75 3.31-1.54 4.95-2.33-8.18-.66-15.99-2.62-23.99-4.32-.96-.21-1.91-.44-2.86-.7 2.3-4.86 3.62-10.03 5.68-14.98 3.05-7.33 4.84-15.41 6.64-23.19.63-2.51.81-5.61 2.72-7.5 4.19-4.51 9.87-5.9 15.8-6.41 4.59-.52 8.78.51 13.26-1.14ZM329.52 333.81c6.38 12.69 8.99 26.61 15.35 39.3 2.2 4.3 3.08 8.95 4.75 13.42 2.52 5.97 7.92 11.01 11.51 16.53-1.98-.58-3.96-1.19-5.93-1.81 4.54 4.54 9.26 8.34 15.49 10.28-1.05.52-2.09 1.03-3.13 1.55 2.16 1.12 4.3 1.81 6.69 2.33-3.9 3.08-8.06 4.81-12.94 5.64l1.77-2.16c-3.39-.77-8.24-.53-10.66-3.26 1.86-.07 3.73-.08 5.59-.07-10.37-5.39-18.84-14.94-24.65-24.95-5.32-8.87-9.93-17.99-13.03-27.9-2.4-7.49-6.53-13.3-10.11-20.45 6.32-3.05 12.82-5.75 19.3-8.45Z" fill="#af4849"/><path d="M165.13 335.03c-.29 1-.61 1.99-.96 2.97-2.5 2.21-5.03 4.45-7.77 6.38-5.8 3.57-12.87 4.6-19.47 2.89 4.41-1.66 8.35-3.47 12.42-5.85 6.43 1.57 10.79-3.31 15.78-6.39Z" fill="#f0dfd8"/><path d="M230.21 335.03c-.77 2.67-3.3 6.12-6.44 5.69 1.9-2.18 3.98-4.13 6.44-5.69Z" fill="#332722"/><path d="M224.23 335.87c-1.14 6.18-2.52 11.8-1.31 18.14 1.36 6.62 2.63 12.9 6.43 18.63 3.42 5.89 8.16 10.51 13.96 14.06 3.9 2.35 7.76 5 11.96 6.78-.85.93-1.66 1.89-2.48 2.85-14.24-4.9-25.88-17.4-30.96-31.44-.29-3.11.01-6.32-.49-9.39-.58-2.63-1.52-5.17-2.17-7.78.37-3.23.96-6.44 1.44-9.66 1.24-.68 2.44-1.42 3.62-2.19Z" fill="#b16242"/><path d="M309.01 344.08c-.16 1.25-.32 2.5-.47 3.76-4.93 10.52-11.5 20.77-19.29 29.41-7.5 7.32-16.04 14.17-25.6 18.6-2.3-.8-4.62-1.53-7-2.06 4.25-2.82 8.69-5.31 12.78-8.38 8.36-5.75 15.9-12.78 22.81-20.2 3.4-3.57 5.45-7.76 8.31-11.72.87-1.21 1.49-2.43 1.96-3.83 2.34-1.66 4.45-3.57 6.5-5.58Z" fill="#4c3f46"/><path d="M214.56 346.04c.49.56 1 1.11 1.49 1.68 1.87 4.09 3.56 8.75 3.53 13.3.08 1.49-.56 2.44-1.41 3.59-1.72-4.77-1.52-9.61-2.65-14.56-.56 1.32-1.11 2.65-1.61 4 .06-1.26.11-2.52.15-3.79.17-1.4.33-2.81.5-4.22Z" fill="#7679e4"/><path d="M219.17 347.72c.65 2.61 1.59 5.15 2.17 7.78.5 3.07.2 6.28.49 9.39-2.16 1.1-4.88 3.56-7.22 1.48-3.07-2.83-3.26-8.52-2.91-12.38.1-2.16.76-2.49 2.36-3.73-.04 1.27-.09 2.53-.15 3.79-.51 4.17-.11 7.99 3.02 11.03l1.24-.47c.85-1.15 1.49-2.1 1.41-3.59.03-4.55-1.66-9.21-3.53-13.3 1.05-.13 2.1-.13 3.12 0Z" fill="#32221e"/><path d="M310.78 346.57c1.95 3.57 4.08 7.06 5.83 10.73 2.47 6.01 4.17 12.32 6.78 18.3 3 7.35 6.95 14.16 11.1 20.91 4.75 6.97 9.98 13.18 17.7 16.96-1.09.34-2.18.69-3.26 1.03 1.81 3.7 4.75 4.62 8.46 5.66.59 3.44 3.84 2.73 6.43 2.39 9.89-2.17 17.69-10.61 21.82-19.5 5.78 4.16 10.46 9.13 16.56 12.75 17.13 10.42 37.32 16.79 56.8 21.1 17.53 3.97 35.17 5.02 53 6.46v2.43c-2.01-.27-4-.59-6-.92-3.88-.66-7.62.11-11.5-.57-4.47-.9-9.01-.6-13.49-1.5-10.9-1.07-21.61-3.24-32.18-6.09-10.24-2.3-20.19-5.47-29.79-9.74-3.49-1.53-7-2.72-10.24-4.77-4.93-3.21-9.91-4.68-14.24-8.75-2.56-2.47-5.21-4.64-8.47-6.14-3.53 4.97-6.4 9.81-11.67 13.1-5.12 3.73-10.72 4.98-16.99 3.98-.99-.6-1.75-1.63-2.58-2.44-2.21-.9-4.77-1.52-6.34-3.45-1.09-1.17-1.01-3.11-1.3-4.61-5.74-4.77-10.92-9.86-14.85-16.27-5.54-7.73-9.49-16.92-13.19-25.65-1.83-4.2-2.67-8.65-4.58-12.8-1.08-2.29-2.31-4.56-3.5-6.8l-.09-.18c-1.01 2.78-2.09 5.5-3.7 7.99-5.05 7.63-10.02 15.06-16.82 21.3-4.67 5.17-10.23 9.17-15.76 13.33-.58 4.73-1.95 9.46-2.15 14.2.74 3.57 2 7.71 3.34 11.1 2.94 5.97 7.53 11.21 13.02 14.97 4.62 3.19 9.12 6.54 13.71 9.77-.05 1.39-.18 2.77-.4 4.13-.93.75-1.89 1.45-2.88 2.12 1.68 3.91 4.48 6.84 5.62 10.87 1.61 4.73 2.06 9.66 1.44 14.61-.62 2.27-2.99 3.88-2.8 6.39.13 5.33-.39 10.54-2.13 15.6-.48 1.59-2.39 2.54-3.63 3.51-1.21 3.24-1.99 6.58-2.84 9.92h-3.03c1.98-5.16 3.33-10.51 3.53-16.05.46 1.36.95 2.7 1.44 4.05 2.57-1.92 2.98-5.89 3.61-8.83.48-4.22.73-8.76-.28-12.91 1.16.5 2.1.5 2.8 0 1.67-4.34 1.07-9.72-.23-14.11-1.88-5.69-4.89-11.31-8.6-16.03 1.99.3 6.02 1.81 6.5-1.23-5.97-5.29-13.11-9.27-19.04-14.61-3.79-4.19-7.96-8.85-9.36-14.44-.99-3.7-2.55-6.92-2.07-10.83.57-4.53 1.21-9.18 2.38-13.6 7.59-5.83 16.03-12.03 22.05-19.73 5.88-7.65 11.5-15.1 14.76-24.3.42-.95.85-1.88 1.3-2.81Z" fill="#fcfcfc"/><path d="m308.54 347.84.94 1.54c-3.26 9.2-8.88 16.65-14.76 24.3-6.02 7.7-14.46 13.9-22.05 19.73-1.17 4.42-1.81 9.07-2.38 13.6-.48 3.91 1.08 7.13 2.07 10.83 1.4 5.59 5.57 10.25 9.36 14.44 5.93 5.34 13.07 9.32 19.04 14.61-.48 3.04-4.51 1.53-6.5 1.23 3.71 4.72 6.72 10.34 8.6 16.03 1.3 4.39 1.9 9.77.23 14.11-.7.5-1.64.5-2.8 0 1.01 4.15.76 8.69.28 12.91-.63 2.94-1.04 6.91-3.61 8.83-.49-1.35-.98-2.69-1.44-4.05-.2 5.54-1.55 10.89-3.53 16.05h-1.33c1.26-5.61 2.8-11.27 3.42-16.99.64-5.08-2.07-9.35-1.57-14.4 1.05 2.24 2.11 4.48 3.03 6.78.38 2.49.91 4.83 2.31 6.99 1.78-6.3 1.74-13.02.35-19.39-1.06-5-3.97-8.27-6.12-12.82 4.21 3.72 6.76 8.37 9.79 12.99.91-8.7-2.87-16.55-7.19-23.81-1.94-3.53-5.13-4.79-7.99-7.38 3.22.74 6.39 1.69 9.66 2.21-4.05-4.99-10.49-7.76-15.2-12.35-6.29-6.11-11.56-13.9-12.39-22.85-.78-5.32.94-10.65 1.55-16.15-12.92 6.64-25.78 12.06-40.33 13.89-2.64.24-5.23.62-7.75 1.46-9.52.11-18.88.98-28.36-.31 1.33 4.07 3.02 7.74 3.04 12.13.04 3.92.66 8.5-.67 12.23-2.91 6.49-9.78 9.92-15.5 13.54-4.12 2.76-8.6 4.76-12.98 7.07 2.37-.1 4.72-.27 7.07-.53-7.22 4.11-13.96 8.16-17.84 15.87 2.33-1.1 4.65-2.24 6.97-3.37-4.32 5.35-6.84 11.48-9.31 17.81l-1.26-.68c1.44-4.01 2.98-7.95 5.1-11.66-1.32.63-2.61 1.12-4.02 1.5-.2-6.95 7.46-12.94 12.71-16.41-1.95-.03-3.89-.05-5.83-.11.51-2.06 2.1-2.41 3.74-3.29 9.61-4.39 19.54-9.32 27.28-16.65 2.14-1.8 2.29-4.76 2.64-7.34.63-6.95-.82-14.18-3.27-20.67-6.27-.43-12.55.4-18.77-.26-1.87-.12-3.2-.85-4.71-1.89.63-.91 1.27-1.82 1.91-2.73-1.26.08-2.52.15-3.78.2 0-4.82.81-9.15 3.08-13.42-1.47 1.07-2.99 2.2-4.59 3.03-2.23.04-.85-2.72-.47-3.86 1.64-4.29 4.03-7.95 7.17-11.29-1.11-.32-2.22-.64-3.32-.99 2.24-2.36 4.77-4.39 7.05-6.69.22-.57.42-1.15.62-1.73 2.91-1.27 5.37-3.16 8.05-4.82-2.71 4.43-6.73 7.07-10.11 11.02 2.42-.78 4.85-1.44 7.37-1.83-2.99 2.8-6.6 3.85-9.17 7.01-2.07 2.28-3.42 4.89-4.42 7.78 3.03-.75 6.06-1.39 9.17-1.73-2.2 1.5-5.43 2.76-6.36 5.4-1.32 2.78-1.64 5.7-1.7 8.73 3.18-1.5 5.81-3.4 9.51-3.27-2.46 2.84-5.37 4.35-6.57 7.93 7.18.58 14.36.9 21.51 1.81 7 .98 13.77.27 20.79.15 5.44-.1 10.6-1.45 16-1.93 6.29-.56 11.95-2.34 18.1-3.8 3.53-.84 6.8-2.3 10.08-3.81 1.83-.81 3.66-1.62 5.47-2.47 9.56-4.43 18.1-11.28 25.6-18.6 7.79-8.64 14.36-18.89 19.29-29.41Z" fill="#251813"/><path d="M215.52 350.05c1.13 4.95.93 9.79 2.65 14.56l-1.24.47c-3.13-3.04-3.53-6.86-3.02-11.03.5-1.35 1.05-2.68 1.61-4Z" fill="#8f99f3"/><path d="m311 352.19.09.18c1.19 2.24 2.42 4.51 3.5 6.8-.38.37-.75.74-1.13 1.12-2.05-.03-4.11-.07-6.16-.11 1.61-2.49 2.69-5.21 3.7-7.99Z" fill="#404142"/><path d="M314.59 359.17c1.91 4.15 2.75 8.6 4.58 12.8 3.7 8.73 7.65 17.92 13.19 25.65 3.93 6.41 9.11 11.5 14.85 16.27.29 1.5.21 3.44 1.3 4.61 1.57 1.93 4.13 2.55 6.34 3.45.83.81 1.59 1.84 2.58 2.44 6.27 1 11.87-.25 16.99-3.98 5.27-3.29 8.14-8.13 11.67-13.1 3.26 1.5 5.91 3.67 8.47 6.14 4.33 4.07 9.31 5.54 14.24 8.75 3.24 2.05 6.75 3.24 10.24 4.77 9.6 4.27 19.55 7.44 29.79 9.74 10.57 2.85 21.28 5.02 32.18 6.09 4.48.9 9.02.6 13.49 1.5 3.88.68 7.62-.09 11.5.57 2 .33 3.99.65 6 .92v2.87c-4.98-.59-9.9-1.16-14.93-1.16-15.96-1.52-31.78-3.35-47.25-7.79-16.69-3.47-32.72-9.5-47.46-18.06-3.94-1.96-7.37-4.56-10.9-7.16-1.61-1.25-3.69-1.5-5.59-.79-2.52 1.76-4.46 4.36-6.82 6.36-4.5 3.91-10.39 6.98-16.39 7.48-4.76.4-8.78-2.09-12.52-4.69-4.45-3.02-5.71-7.66-9.68-11.31-5.39-5.07-10.08-10.85-13.66-17.35-4.65-8.62-8.86-17.46-12.3-26.63-.81-2.21-1.81-3.72-3.48-5.37-3.98 2.73-5.69 6.53-8.68 10.16-5.74 7.18-12.34 13.7-19.42 19.56-2.12 1.86-4.4 3.77-5.41 6.49-1.31 3.59-1.32 7.84-1.18 11.61.39 6.4 3.63 12.18 7.72 16.97 3.93 4.75 9.43 7.85 14.41 11.56 2.14 1.6 4.89 3.54 5.94 6.08.65 3.72-.38 7.34 1.05 11.03 2.07 5.47 4.37 10.33 4.17 16.35.12 4.77-2.17 8.32-2.73 12.99-.49 4.08-.61 7.98-2.04 11.92-1.07 3.15-2.97 5.54-4.49 8.43-1.06 2.04-1.59 4.45-2.31 6.66h-3.03c.85-3.34 1.63-6.68 2.84-9.92 1.24-.97 3.15-1.92 3.63-3.51 1.74-5.06 2.26-10.27 2.13-15.6-.19-2.51 2.18-4.12 2.8-6.39.62-4.95.17-9.88-1.44-14.61-1.14-4.03-3.94-6.96-5.62-10.87.99-.67 1.95-1.37 2.88-2.12.22-1.36.35-2.74.4-4.13-4.59-3.23-9.09-6.58-13.71-9.77-5.49-3.76-10.08-9-13.02-14.97-1.34-3.39-2.6-7.53-3.34-11.1.2-4.74 1.57-9.47 2.15-14.2 5.53-4.16 11.09-8.16 15.76-13.33 6.8-6.24 11.77-13.67 16.82-21.3 2.05.04 4.11.08 6.16.11.38-.38.75-.75 1.13-1.12Z" fill="#727373"/><path d="M311.02 362.19c1.67 1.65 2.67 3.16 3.48 5.37 3.44 9.17 7.65 18.01 12.3 26.63 3.58 6.5 8.27 12.28 13.66 17.35 3.97 3.65 5.23 8.29 9.68 11.31 3.74 2.6 7.76 5.09 12.52 4.69 6-.5 11.89-3.57 16.39-7.48 2.36-2 4.3-4.6 6.82-6.36 1.9-.71 3.98-.46 5.59.79 3.53 2.6 6.96 5.2 10.9 7.16 14.74 8.56 30.77 14.59 47.46 18.06 15.47 4.44 31.29 6.27 47.25 7.79 5.03 0 9.95.57 14.93 1.16v2.96c-5.02-.86-9.92-1.16-15-1.23-9.73-1.04-19.27-1.9-28.95-3.6-8.18-1.45-15.99-3.61-24.05-5.58-17.45-3.95-34.25-11.3-49.3-20.92-2.07-1.19-4.78-4.2-7.28-3.8-2.53 1.68-4.58 4.12-6.94 6.04-4.96 4.22-10.99 7.06-17.47 7.91-5.57.59-11.17-2.74-15.43-6.01-4.16-3.12-5.74-7.89-9.63-11.38-7.03-6.66-12.55-14.59-16.66-23.34-3.71-6.97-6.61-14.27-9.81-21.47-3.09-.13-4.04 2.39-5.85 4.39-4.68 6.28-10.13 11.82-15.87 17.12-2.99 2.78-6.98 5.37-9.1 8.88-3.55 8.21-1.5 17.06 3.63 24.07 4.15 6.06 9.82 9.16 15.59 13.41 2.82 2.07 6.32 4.26 7.46 7.75.52 2.29.2 4.8.29 7.14-.06 3.16 1.44 6.04 2.46 8.97 2.03 5.37 3.31 11.3 1.83 16.98-.95 3.38-2.2 6.56-2.4 10.12-.4 5.67-1.39 11.08-4.52 15.93-1.87 2.81-3.06 5.82-4.14 9h-2.81c.72-2.21 1.25-4.62 2.31-6.66 1.52-2.89 3.42-5.28 4.49-8.43 1.43-3.94 1.55-7.84 2.04-11.92.56-4.67 2.85-8.22 2.73-12.99.2-6.02-2.1-10.88-4.17-16.35-1.43-3.69-.4-7.31-1.05-11.03-1.05-2.54-3.8-4.48-5.94-6.08-4.98-3.71-10.48-6.81-14.41-11.56-4.09-4.79-7.33-10.57-7.72-16.97-.14-3.77-.13-8.02 1.18-11.61 1.01-2.72 3.29-4.63 5.41-6.49 7.08-5.86 13.68-12.38 19.42-19.56 2.99-3.63 4.7-7.43 8.68-10.16Z" fill="silver"/><path d="M165.89 375.98c.31 3.04 1.21 4.19-1.62 6.2-.97-1.76-1.93-3.52-2.89-5.28 1.5-.31 3.01-.61 4.51-.92Z" fill="#484949"/><path d="M455.14 384.57c1.69.39 3.35.86 5.03 1.31.95.26 1.9.49 2.86.7-.98.04-1.94.16-2.89.36-2.75 5.06-4.49 10.39-8.37 14.83-3.24 4.63-7.83 6.57-12.34 9.64-3.39 2.32-7.66 3.95-11.79 3.99l-1.21-1.37c3.09-.86 6.06-2.03 8.73-3.83 9.12-6.41 16.1-15.13 19.98-25.63Z" fill="#c0a9bb"/><path d="M255.27 393.48c.46.11.92.21 1.38.31 2.38.53 4.7 1.26 7 2.06-1.81.85-3.64 1.66-5.47 2.47-1.79-.67-3.59-1.34-5.39-1.99.82-.96 1.63-1.92 2.48-2.85Z" fill="#8f4c3c"/><path d="M270.31 394.83c-.61 5.5-2.33 10.83-1.55 16.15.83 8.95 6.1 16.74 12.39 22.85 4.71 4.59 11.15 7.36 15.2 12.35-3.27-.52-6.44-1.47-9.66-2.21 2.86 2.59 6.05 3.85 7.99 7.38 4.32 7.26 8.1 15.11 7.19 23.81-3.03-4.62-5.58-9.27-9.79-12.99 2.15 4.55 5.06 7.82 6.12 12.82 1.39 6.37 1.43 13.09-.35 19.39-1.4-2.16-1.93-4.5-2.31-6.99.24-2.2.43-4.33-.09-6.5-1.39-6.44-2.97-13.24-6.5-18.86-1.42-2.32-2.72-4.7-3.75-7.22 2.74 1.61 5.19 3.61 7.86 5.32-1.96-4.64-4.94-9.14-8.89-12.31-3.2-2.62-6.63-4.98-10.03-7.34 1.96-.5 3.92-1.01 5.87-1.53-2.46-3.51-5.17-6.82-7.64-10.33-3.8-5.47-10.1-9.2-16-12.01-4.13-1.82-8.87-3.78-13.44-2.94-5.18.76-10.07 1.8-15.32.85 1.42-.92 2.81-1.89 4.18-2.89l-3.95-.51c.72-.8 1.43-1.6 2.14-2.4 14.55-1.83 27.41-7.25 40.33-13.89Z" fill="#4c3f46"/><path d="M229.98 408.72c-.71.8-1.42 1.6-2.14 2.4l3.95.51c-1.37 1-2.76 1.97-4.18 2.89-.74.36-1.5.7-2.25 1.03-.91-.04-1.83-.11-2.74-.22-2.21-.35-4.41-.73-6.62-1.06 2.04-1.43 4.07-2.84 6.23-4.09 2.52-.84 5.11-1.22 7.75-1.46Z" fill="#8b4b3d"/><path d="M193.87 409.87c9.48 1.29 18.84.42 28.36.31-2.16 1.25-4.19 2.66-6.23 4.09 2.21.33 4.41.71 6.62 1.06-4.42 5.33-7.17 11.55-7.12 18.57.69-.09 1.39-.18 2.08-.28-1.87 7.81-2.04 15.6-.96 23.54 1.05-.92 2.09-1.86 3.11-2.81-.22 9.53-2.37 18.59-4.43 27.84-1.17 4.85-2.07 9.55-4.11 14.14-.74-2.47-1.24-4.93-1.45-7.51.37-.7.74-1.41 1.11-2.12-4.2 1.99-7.05 5.01-8.98 9.22-1.74 4.08-3.24 8.28-4.7 12.47-1.21-1.4-2.39-2.83-3.63-4.22-4-4.87-9.24-7.27-14.79-9.92-7.73-3.52-17.03-4.97-25.28-2.55-1.38.36-1.49 2.6-2.02 3.68 9.17-.66 18.22.9 26.72 4.35 4.82 1.96 8.61 5.28 12.11 9.04.96 1.07 1.88 2.17 2.85 3.23H148.4c.15-9.48 2.51-18.96 4.99-28.06l1.26.68c2.47-6.33 4.99-12.46 9.31-17.81-2.32 1.13-4.64 2.27-6.97 3.37 3.88-7.71 10.62-11.76 17.84-15.87-2.35.26-4.7.43-7.07.53 4.38-2.31 8.86-4.31 12.98-7.07 5.72-3.62 12.59-7.05 15.5-13.54 1.33-3.73.71-8.31.67-12.23-.02-4.39-1.71-8.06-3.04-12.13Z" fill="#362f2c"/><path d="M174.96 411.66c4.84 0 9.69.02 14.53-.16 2.81 5.46 3.06 12.48 2.9 18.5.45 5.11-4.79 8.39-8.46 10.88-7.07 5.09-14.89 8.73-22.84 12.21-2.89 1.01-1.27 4.7-.77 6.77-2.95 2.84-6.07 5.07-7.75 8.93-1.31 3-1.22 6.25-2.42 9.26.38-3.37-.09-6.97.66-10.27 1.37-3.08 3.99-5.56 5.27-8.83.8-1.79 1.27-3.87 2.37-5.5 2.3-3.01 5.69-4.37 9-5.93 6.5-2.91 12.6-6.69 18.39-10.8 4.45-3.99 3.8-10.18 3.51-15.58-.21-2.87-1.92-4.6-3.78-6.57-3.48-.03-6.96-.02-10.44-.06l-.17-2.85Z" fill="#616262"/><path d="M256.37 416.61c5.9 2.81 12.2 6.54 16 12.01 2.47 3.51 5.18 6.82 7.64 10.33-1.95.52-3.91 1.03-5.87 1.53 3.4 2.36 6.83 4.72 10.03 7.34 3.95 3.17 6.93 7.67 8.89 12.31-2.67-1.71-5.12-3.71-7.86-5.32 1.03 2.52 2.33 4.9 3.75 7.22 3.53 5.62 5.11 12.42 6.5 18.86.52 2.17.33 4.3.09 6.5-.92-2.3-1.98-4.54-3.03-6.78-.73-1.85-1.91-3.31-3.25-4.74-.31 4.95.66 9.87-.57 14.51-1.54 7.4-2.6 14.69-5.85 21.62h-75.59c1.18-1.95 2.28-3.94 3.36-5.94 3.13-5.92 5.23-12.43 6.68-18.96 1.25-5.4 2.98-10.55 3.7-16.08.99-6.37-.01-12.64.81-19.04.44-4.49 1.54-8.85 2.08-13.33-2.16 2.84-3.14 6.03-4.57 9.23.33-4.65.94-9.3 1.75-13.9.7-4.15 2.63-7.82 4.06-11.97-2.12 1.65-4.16 3.38-6.21 5.1 1.51-4.19 3.77-8.01 6.45-11.56.75-.33 1.51-.67 2.25-1.03 5.25.95 10.14-.09 15.32-.85 4.57-.84 9.31 1.12 13.44 2.94Z" fill="#5d514c"/><path d="M225.36 415.55c-2.68 3.55-4.94 7.37-6.45 11.56 2.05-1.72 4.09-3.45 6.21-5.1-1.43 4.15-3.36 7.82-4.06 11.97-.81 4.6-1.42 9.25-1.75 13.9 1.43-3.2 2.41-6.39 4.57-9.23-.54 4.48-1.64 8.84-2.08 13.33-.82 6.4.18 12.67-.81 19.04-.72 5.53-2.45 10.68-3.7 16.08-1.45 6.53-3.55 13.04-6.68 18.96-.33-2.09-.66-4.16-.9-6.26.5-1.16 1-2.31 1.48-3.47 2.04-4.59 2.94-9.29 4.11-14.14 2.06-9.25 4.21-18.31 4.43-27.84-1.02.95-2.06 1.89-3.11 2.81-1.08-7.94-.91-15.73.96-23.54-.69.1-1.39.19-2.08.28-.05-7.02 2.7-13.24 7.12-18.57.91.11 1.83.18 2.74.22Z" fill="#af6242"/><path d="M54.9 420.5c14.86 5.78 28.04 14.52 35.65 28.96l-.3 1.44c-2.6-3.48-4.91-7.09-7.9-10.25-7.04-7.85-16.31-12.88-25.83-17.11 4.49 13.1 6.28 26.55 4.51 40.34-.28-6.29-.98-12.21-3.34-18.1.61-1.74.97-3.24.69-5.12-.71-5.81-2.39-11.2-4.24-16.68-.66-1.36-.41-2.52.76-3.48Z" fill="#231611"/><path d="M56.52 423.54c9.52 4.23 18.79 9.26 25.83 17.11 2.99 3.16 5.3 6.77 7.9 10.25l.3-1.44c.61-2.47.51-4.93.71-7.44.28-.2.47-.27.57-.2-.71 3.26.12 6.87-1.38 9.8 1.19 4.23 1.49 7.65 1.24 12.03l.68.05c1.04-5.39 1.43-10.46 1.35-15.95 3.68 6.74 6.45 14.57 7.68 22.16-1.02 4.54-2.18 9.12-3.91 13.45.2-5.7.62-11.03-1.86-16.36-1.95 4.28-2.94 8.4-5.42 12.2-1.98 3.13-3.94 6.26-6.29 9.14.27-2.96.53-5.92.57-8.9-1.58 1.82-2.36 3.9-3.56 5.97-.42-5.55-.32-11.04-1.48-16.53-3.07 5.37-3.92 11.02-8.9 15.32.07-1.83.16-3.67.25-5.5-2.52 4.24-4.67 8.61-7.68 12.54.94-6.37 1.44-12.57 1.34-19.02-3.98 8.56-8.88 16.5-13.51 24.7-2.09-14.7 1.65-27.43 3.82-41.75.57-3.4.98-6.75 1.86-10.09.95-.74 1.47-1.62 1.58-2.64l.17-1.78c.28 1.88-.08 3.38-.69 5.12 2.36 5.89 3.06 11.81 3.34 18.1 1.77-13.79-.02-27.24-4.51-40.34Z" fill="#efded7"/><path d="M55.85 437.92c1.8 1.02 1.81 2.75 2.36 4.52-.11 1.02-.63 1.9-1.58 2.64-.88 3.34-1.29 6.69-1.86 10.09-2.17 14.32-5.91 27.05-3.82 41.75.26 2.11.59 4.22.8 6.34.07 2.07-.31 3.64-1.18 5.51-1.4-7.29-2.67-14.33-2.4-21.77-.22-7.45 1.26-14.53 2.53-21.83 1.69-9.05 2.7-18.37 5.15-27.25Z" fill="#20130e"/><path d="M91.83 441.82c1.35 1.18 2.53 2.41 3.36 4.01 3.68 6.6 6.03 13.73 7.64 21.09.8 4.45 1.52 8.7 1.1 13.23.59.54 1.18 1.09 1.78 1.64.48-1.14 1.19-2.02 2.12-2.64l.73.81c-2.06 10.45-5.22 21.32-5.03 32.04h-1.55c-.34-8 1.51-15.53 2.58-23.37-2.06 2.27-3.69 4.81-5.47 7.28.71-4.5 2.67-8.55 2.84-13.17.6-4.33.31-8.56-.53-12.83-1.23-7.59-4-15.42-7.68-22.16.08 5.49-.31 10.56-1.35 15.95l-.68-.05c.25-4.38-.05-7.8-1.24-12.03 1.5-2.93.67-6.54 1.38-9.8Z" fill="#261a15"/><path d="M95.63 467c2.48 5.33 2.06 10.66 1.86 16.36 1.73-4.33 2.89-8.91 3.91-13.45.84 4.27 1.13 8.5.53 12.83-2.94 4.06-5.42 9.72-9.72 12.44.39-5.88 2.59-11.32 2.67-17.25-3.65 7.15-9.03 12.71-14.75 18.21-1.07.94-2.28 1.59-3.5 2.3.2-6.38 1.82-12.51 1.67-18.92-2.77 3.29-4.55 7.07-7.76 10.02-3.68 3.4-7.46 7.19-11.94 9.52-.26-1.03-.53-2.06-.8-3.1-2.08 2.38-4.11 4.8-6.05 7.3-.21-2.12-.54-4.23-.8-6.34 4.63-8.2 9.53-16.14 13.51-24.7.1 6.45-.4 12.65-1.34 19.02 3.01-3.93 5.16-8.3 7.68-12.54-.09 1.83-.18 3.67-.25 5.5 4.98-4.3 5.83-9.95 8.9-15.32 1.16 5.49 1.06 10.98 1.48 16.53 1.2-2.07 1.98-4.15 3.56-5.97-.04 2.98-.3 5.94-.57 8.9 2.35-2.88 4.31-6.01 6.29-9.14 2.48-3.8 3.47-7.92 5.42-12.2Z" fill="#ad6142"/><path d="M152.57 468.79c-.94 3.51 2 6.26.6 9.39-4.2 10.91-7.32 22.07-7.73 33.82h-3.06c.32-11.6 3.57-23.2 7.77-33.95 1.2-3.01 1.11-6.26 2.42-9.26Z" fill="#757676"/><path d="M289.26 475.87c1.34 1.43 2.52 2.89 3.25 4.74-.5 5.05 2.21 9.32 1.57 14.4-.62 5.72-2.16 11.38-3.42 16.99h-7.82c3.25-6.93 4.31-14.22 5.85-21.62 1.23-4.64.26-9.56.57-14.51Z" fill="#4c3f46"/><path d="M94.88 477.93c-.08 5.93-2.28 11.37-2.67 17.25 4.3-2.72 6.78-8.38 9.72-12.44-.17 4.62-2.13 8.67-2.84 13.17 1.78-2.47 3.41-5.01 5.47-7.28-1.07 7.84-2.92 15.37-2.58 23.37H51.33c-.28-1.07-.53-2.15-.76-3.23.87-1.87 1.25-3.44 1.18-5.51 1.94-2.5 3.97-4.92 6.05-7.3.27 1.04.54 2.07.8 3.1 4.48-2.33 8.26-6.12 11.94-9.52 3.21-2.95 4.99-6.73 7.76-10.02.15 6.41-1.47 12.54-1.67 18.92 1.22-.71 2.43-1.36 3.5-2.3 5.72-5.5 11.1-11.06 14.75-18.21Z" fill="#362f2c"/><path d="M103.61 480.89c.68.52 1.24 1.2 1.7 2.03-.46 1.09-1.25 1.88-2.09 2.67-.24-1.6-.17-3.17.39-4.7Z" fill="#7d7573"/><path d="M210.85 486.7c-.37.71-.74 1.42-1.11 2.12-5.59 6.39-8.32 15.64-12.15 23.18h-1.52c.36-1.21.72-2.41 1.1-3.61 1.46-4.19 2.96-8.39 4.7-12.47 1.93-4.21 4.78-7.23 8.98-9.22Z" fill="#261a15"/><path d="M209.74 488.82c.21 2.58.71 5.04 1.45 7.51-.48 1.16-.98 2.31-1.48 3.47-2.14 4.07-4.18 8.19-6.43 12.2h-5.69c3.83-7.54 6.56-16.79 12.15-23.18Z" fill="#2c2428"/><path d="M153.47 491.7c8.25-2.42 17.55-.97 25.28 2.55 5.55 2.65 10.79 5.05 14.79 9.92-.9 1.72-1.84 3.25-3.26 4.6-3.5-3.76-7.29-7.08-12.11-9.04-8.5-3.45-17.55-5.01-26.72-4.35.53-1.08.64-3.32 2.02-3.68Z" fill="#ae6242"/><path d="M209.71 499.8c.24 2.1.57 4.17.9 6.26-1.08 2-2.18 3.99-3.36 5.94h-3.97c2.25-4.01 4.29-8.13 6.43-12.2Z" fill="#97523e"/><path d="M193.54 504.17c1.24 1.39 2.42 2.82 3.63 4.22-.38 1.2-.74 2.4-1.1 3.61h-2.94c-.97-1.06-1.89-2.16-2.85-3.23 1.42-1.35 2.36-2.88 3.26-4.6Z" fill="#8c4b3c"/></svg>